<?xml version="1.0" encoding="UTF-8"?>
<svg version="1.1" xmlns="http://www.w3.org/2000/svg" width="1241" height="682">
<path d="M0 0 C409.53 0 819.06 0 1241 0 C1241 225.06 1241 450.12 1241 682 C831.47 682 421.94 682 0 682 C0 456.94 0 231.88 0 0 Z " fill="#FEFEFE" transform="translate(0,0)"/>
<path d="M0 0 C0.98539387 0.00011959 1.97078773 0.00023918 2.98604202 0.0003624 C34.77898177 0.00524399 66.50336494 0.29846949 98.25 2.1875 C99.65469543 2.27094666 99.65469543 2.27094666 101.08776855 2.3560791 C114.1547483 3.14397314 127.20469878 4.10042146 140.25 5.1875 C140.93080627 5.2433728 141.61161255 5.29924561 142.31304932 5.35681152 C177.86179713 8.28031901 213.35746416 12.81188318 248.48286438 19.00294495 C254.15928955 20.00319695 259.84190258 20.96259917 265.52734375 21.91015625 C296.32282772 27.05521701 326.83769433 33.10877368 357.25 40.1875 C358.42626953 40.46126465 359.60253906 40.7350293 360.81445312 41.01708984 C371.40102336 43.49298127 381.96357618 45.98425184 392.390625 49.07421875 C396.60964918 50.31230973 400.86116331 51.42538757 405.1105957 52.55371094 C418.93755467 56.22682985 432.65231148 60.21907453 446.35595703 64.32568359 C451.9724952 65.99823123 457.60822422 67.60238 463.25 69.1875 C461.98003867 76.3234445 460.16152448 83.13388584 457.94921875 90.03125 C457.63096634 91.03982056 457.31271393 92.04839111 456.9848175 93.08752441 C455.97398176 96.28910415 454.95632438 99.48845437 453.9375 102.6875 C452.60415159 106.88418435 451.27441206 111.08198322 449.94921875 115.28125 C449.62704376 116.30190552 449.30486877 117.32256104 448.97293091 118.37414551 C446.8075796 125.28275651 444.80287155 132.2213035 442.90391541 139.20727539 C441.29651298 145.10226531 439.47483796 150.90467852 437.5 156.6875 C437.19707031 157.59113281 436.89414063 158.49476563 436.58203125 159.42578125 C434.40704205 165.8734159 434.40704205 165.8734159 433.25 168.1875 C488.69 168.1875 544.13 168.1875 601.25 168.1875 C595.63038633 173.80711367 595.63038633 173.80711367 592.46875 175.859375 C591.72963379 176.3450293 590.99051758 176.83068359 590.22900391 177.33105469 C589.41093262 177.86118164 588.59286133 178.39130859 587.75 178.9375 C585.8505915 180.18602404 583.95223888 181.43615525 582.0546875 182.6875 C580.98444336 183.39261719 579.91419922 184.09773437 578.81152344 184.82421875 C572.57729338 188.94908327 566.40049452 193.15995591 560.2124939 197.35366821 C539.96399381 211.07358343 519.61753413 224.64514167 499.25 238.1875 C501.98952757 240.96836233 504.70877962 243.67880024 507.74609375 246.1328125 C508.37966797 246.64650391 509.01324219 247.16019531 509.66601562 247.68945312 C510.33310547 248.22505859 511.00019531 248.76066406 511.6875 249.3125 C512.39197266 249.88162109 513.09644531 250.45074219 513.82226562 251.03710938 C518.83568419 255.07757339 523.88960465 259.06461242 528.96533203 263.02636719 C533.37986718 266.47992355 537.72581975 270.01190578 542.0625 273.5625 C547.52287441 278.02923822 553.06214341 282.36818295 558.6875 286.625 C565.2788207 291.61572253 571.69610468 296.78265939 578.05053711 302.07104492 C583.29792897 306.43169204 588.62882984 310.66967031 594.04956055 314.81298828 C598.14401143 317.97552286 598.14401143 317.97552286 599.25 320.1875 C502.89 320.1875 406.53 320.1875 307.25 320.1875 C297.845 295.9325 297.845 295.9325 288.25 271.1875 C281.80335197 254.68059061 281.80335197 254.68059061 275.27319336 238.20678711 C271.58673638 228.9543703 268.00262168 219.74996179 265.0625 210.23046875 C261.71885173 197.59174277 261.71885173 197.59174277 254.12744141 187.61523438 C248.97618763 185.34949343 243.86063683 185.23209508 238.30517578 185.26123047 C232.65227079 185.12480908 227.12738922 184.00267047 221.5625 183.0625 C218.52221418 182.60748348 215.48072258 182.16163261 212.4387207 181.71826172 C209.81988453 181.28235713 207.2431908 180.77405502 204.64575195 180.23071289 C198.79467269 179.04775339 192.91517413 178.29055724 186.9921875 177.56640625 C185.82606934 177.42179459 184.65995117 177.27718292 183.45849609 177.12818909 C179.68134167 176.663035 175.90332087 176.20557696 172.125 175.75 C170.19530365 175.5156424 170.19530365 175.5156424 168.22662354 175.27655029 C147.15242812 172.73013553 126.09782324 170.73678332 104.90966797 169.46533203 C101.69752679 169.22147502 98.52966689 168.84129622 95.33633423 168.42578125 C91.56246544 167.99476585 87.77736807 167.82817802 83.984375 167.65234375 C83.07149719 167.60918533 82.15861938 167.56602692 81.21807861 167.52156067 C29.05941646 165.14724329 -23.33017917 165.18663311 -75.484375 167.65234375 C-76.3171698 167.69095016 -77.1499646 167.72955658 -78.00799561 167.76933289 C-82.96539698 168.02379794 -87.82824927 168.54488973 -92.75 169.1875 C-94.69266087 169.27771645 -96.63553529 169.36641023 -98.5793457 169.42700195 C-125.54673558 170.30852044 -152.57168624 174.10132126 -179.28515625 177.71972656 C-181.68816449 178.04414622 -184.09186629 178.36345379 -186.49609375 178.67871094 C-199.56951724 180.39484867 -212.56786915 182.45521047 -225.5625 184.6875 C-226.81998047 184.90019531 -228.07746094 185.11289062 -229.37304688 185.33203125 C-231.78418466 185.74594959 -234.19266689 186.17576014 -236.59765625 186.62402344 C-238.47570158 186.95972113 -240.36395309 187.25075722 -242.26171875 187.44628906 C-244.64691428 187.67839246 -244.64691428 187.67839246 -247.75 189.1875 C-249.88554216 192.18533652 -250.94316805 195.47326905 -252.125 198.9375 C-252.97500647 201.23104603 -253.82671388 203.52396205 -254.6796875 205.81640625 C-255.1612702 207.14073781 -255.64270885 208.46512176 -256.12402344 209.78955078 C-258.97334047 217.56402706 -262.06408186 225.24773803 -265.09957886 232.95083618 C-267.04815521 237.90376711 -268.98252321 242.86223918 -270.91796875 247.8203125 C-274.18758509 256.19160262 -277.4611974 264.5613179 -280.73828125 272.9296875 C-281.55468822 275.01472954 -282.37109448 277.09977185 -283.1875 279.18481445 C-284.36101111 282.18181299 -285.53460244 285.17877994 -286.70849609 288.17562866 C-287.79170597 290.94116185 -288.87443822 293.70688155 -289.95703125 296.47265625 C-290.29159332 297.32665512 -290.6261554 298.18065399 -290.97085571 299.06053162 C-293.30241267 305.01966593 -295.59268531 310.99312066 -297.84643555 316.98217773 C-298.75 319.1875 -298.75 319.1875 -299.75 320.1875 C-301.30341924 320.2844461 -302.8612614 320.31121669 -304.41770267 320.31054783 C-305.43336184 320.31253888 -306.449021 320.31452993 -307.49545771 320.31658131 C-308.62481082 320.31366847 -309.75416393 320.31075563 -310.91773987 320.30775452 C-312.70149211 320.30903615 -312.70149211 320.30903615 -314.52127975 320.31034368 C-317.83690015 320.31171188 -321.15246225 320.30856438 -324.46807563 320.30356562 C-328.03796191 320.29926445 -331.60784624 320.30070731 -335.17773438 320.3014679 C-341.36774183 320.30199334 -347.55773879 320.29884438 -353.74774361 320.29323006 C-362.69755337 320.28511786 -371.64735802 320.28250013 -380.59717106 320.28124207 C-395.1161345 320.2790511 -409.63509234 320.27238982 -424.15405273 320.26293945 C-438.26147432 320.25376648 -452.36889439 320.24668508 -466.47631836 320.24243164 C-467.77974784 320.24203756 -467.77974784 320.24203756 -469.10950924 320.24163551 C-473.46860333 320.24033051 -477.82769743 320.23906679 -482.18679154 320.23782361 C-518.37453165 320.22744962 -554.56226539 320.2098301 -590.75 320.1875 C-587.21283951 316.61870455 -583.59422002 313.23371918 -579.75 310 C-579.18385986 309.52224121 -578.61771973 309.04448242 -578.03442383 308.55224609 C-573.72446736 304.94282896 -569.3136979 301.49562232 -564.83569336 298.09667969 C-560.42138064 294.7355212 -556.10845906 291.26080891 -551.8125 287.75 C-543.9703499 281.3445011 -536.02263435 275.08373916 -528.04101562 268.85351562 C-520.42585264 262.9055263 -512.88240868 256.87946769 -505.39501953 250.77124023 C-500.56822807 246.83792376 -495.69829111 242.9674446 -490.75 239.1875 C-494.08931431 236.46001727 -497.49068846 233.93347213 -501.0625 231.51953125 C-502.11864502 230.8042627 -503.17479004 230.08899414 -504.26293945 229.35205078 C-505.42526775 228.56799647 -506.58762215 227.78398085 -507.75 227 C-508.98213759 226.16668518 -510.21414912 225.33318393 -511.44604492 224.49951172 C-514.82529273 222.21347684 -518.20636252 219.93015041 -521.58782959 217.6473999 C-524.54233006 215.65251785 -527.49595291 213.65633842 -530.44955444 211.66012573 C-532.75826682 210.09977393 -535.06711071 208.53961688 -537.37597656 206.97949219 C-540.50188069 204.86723614 -543.62749866 202.75455756 -546.75292969 200.64160156 C-553.73110196 195.92476054 -560.7109988 191.21066463 -567.70353699 186.51513672 C-570.61594815 184.55871145 -573.52608943 182.59892714 -576.43588257 180.63861084 C-577.80377098 179.71837992 -579.17275786 178.79977956 -580.5428772 177.88287354 C-582.42197682 176.62519222 -584.29731474 175.36208948 -586.171875 174.09765625 C-587.22987305 173.38746338 -588.28787109 172.67727051 -589.37792969 171.94555664 C-591.75 170.1875 -591.75 170.1875 -592.75 168.1875 C-537.64 168.1875 -482.53 168.1875 -425.75 168.1875 C-428.89115117 157.71699611 -431.97321641 147.4566916 -435.47265625 137.1484375 C-437.02832499 132.434069 -438.34844266 127.65445111 -439.6875 122.875 C-441.54407876 116.24903701 -443.52244705 109.69819204 -445.75 103.1875 C-448.0496907 96.4439257 -450.14769793 89.65773145 -452.125 82.8125 C-452.38796875 81.91402344 -452.6509375 81.01554687 -452.921875 80.08984375 C-453.16164063 79.24808594 -453.40140625 78.40632813 -453.6484375 77.5390625 C-453.86161621 76.79479004 -454.07479492 76.05051758 -454.29443359 75.28369141 C-454.75 73.1875 -454.75 73.1875 -454.75 69.1875 C-432.68345485 62.3619957 -410.56124738 55.74936401 -388.11865234 50.26538086 C-382.35344397 48.85421136 -376.63981682 47.33265117 -370.9375 45.6875 C-360.27826318 42.65133518 -349.44862209 40.38770322 -338.62158203 38.03955078 C-334.59473449 37.15332945 -330.5763474 36.23489937 -326.55859375 35.30859375 C-303.54914836 30.02813543 -280.41234866 25.69172644 -257.16210938 21.61349487 C-254.83022946 21.20166907 -252.49989028 20.78211192 -250.16992188 20.35961914 C-241.34756158 18.765408 -232.5184931 17.39223295 -223.625 16.25 C-221.65818697 15.99369479 -219.691374 15.73738922 -217.7245636 15.48106384 C-215.71057702 15.21921101 -213.69635785 14.95919978 -211.68212891 14.69921875 C-207.97785065 14.21715199 -204.27587093 13.72053065 -200.57421875 13.21875 C-192.63952493 12.15175982 -184.69784008 11.15067635 -176.75 10.1875 C-175.55198761 10.04184601 -175.55198761 10.04184601 -174.32977295 9.89324951 C-148.5410586 6.77571221 -122.73357295 4.55663028 -96.8125 2.9375 C-96.14614532 2.89571625 -95.47979065 2.8539325 -94.79324341 2.81088257 C-86.57014837 2.29663213 -78.34575078 1.81407308 -70.11859131 1.36953735 C-68.01365172 1.25578724 -65.90884627 1.13949308 -63.80426025 1.01937866 C-42.5573799 -0.17545032 -21.27274923 -0.01141341 0 0 Z " fill="#FCFCFC" transform="translate(605.75,185.8125)"/>
<path d="M0 0 C0.98539387 0.00011959 1.97078773 0.00023918 2.98604202 0.0003624 C34.77898177 0.00524399 66.50336494 0.29846949 98.25 2.1875 C99.65469543 2.27094666 99.65469543 2.27094666 101.08776855 2.3560791 C114.1547483 3.14397314 127.20469878 4.10042146 140.25 5.1875 C140.93080627 5.2433728 141.61161255 5.29924561 142.31304932 5.35681152 C177.86179713 8.28031901 213.35746416 12.81188318 248.48286438 19.00294495 C254.15928955 20.00319695 259.84190258 20.96259917 265.52734375 21.91015625 C296.32282772 27.05521701 326.83769433 33.10877368 357.25 40.1875 C358.42626953 40.46126465 359.60253906 40.7350293 360.81445312 41.01708984 C371.40102336 43.49298127 381.96357618 45.98425184 392.390625 49.07421875 C396.60964918 50.31230973 400.86116331 51.42538757 405.1105957 52.55371094 C418.93755467 56.22682985 432.65231148 60.21907453 446.35595703 64.32568359 C451.9724952 65.99823123 457.60822422 67.60238 463.25 69.1875 C461.98003867 76.3234445 460.16152448 83.13388584 457.94921875 90.03125 C457.63096634 91.03982056 457.31271393 92.04839111 456.9848175 93.08752441 C455.97398176 96.28910415 454.95632438 99.48845437 453.9375 102.6875 C452.60415159 106.88418435 451.27441206 111.08198322 449.94921875 115.28125 C449.62704376 116.30190552 449.30486877 117.32256104 448.97293091 118.37414551 C446.8075796 125.28275651 444.80287155 132.2213035 442.90391541 139.20727539 C441.29651298 145.10226531 439.47483796 150.90467852 437.5 156.6875 C437.19707031 157.59113281 436.89414063 158.49476563 436.58203125 159.42578125 C434.40704205 165.8734159 434.40704205 165.8734159 433.25 168.1875 C488.69 168.1875 544.13 168.1875 601.25 168.1875 C595.63038633 173.80711367 595.63038633 173.80711367 592.46875 175.859375 C591.72963379 176.3450293 590.99051758 176.83068359 590.22900391 177.33105469 C589.41093262 177.86118164 588.59286133 178.39130859 587.75 178.9375 C585.8505915 180.18602404 583.95223888 181.43615525 582.0546875 182.6875 C580.98444336 183.39261719 579.91419922 184.09773437 578.81152344 184.82421875 C572.57729338 188.94908327 566.40049452 193.15995591 560.2124939 197.35366821 C539.96399381 211.07358343 519.61753413 224.64514167 499.25 238.1875 C501.98952757 240.96836233 504.70877962 243.67880024 507.74609375 246.1328125 C508.37966797 246.64650391 509.01324219 247.16019531 509.66601562 247.68945312 C510.33310547 248.22505859 511.00019531 248.76066406 511.6875 249.3125 C512.39197266 249.88162109 513.09644531 250.45074219 513.82226562 251.03710938 C518.83568419 255.07757339 523.88960465 259.06461242 528.96533203 263.02636719 C533.37986718 266.47992355 537.72581975 270.01190578 542.0625 273.5625 C547.52287441 278.02923822 553.06214341 282.36818295 558.6875 286.625 C565.2788207 291.61572253 571.69610468 296.78265939 578.05053711 302.07104492 C583.29792897 306.43169204 588.62882984 310.66967031 594.04956055 314.81298828 C598.14401143 317.97552286 598.14401143 317.97552286 599.25 320.1875 C502.89 320.1875 406.53 320.1875 307.25 320.1875 C297.845 295.9325 297.845 295.9325 288.25 271.1875 C281.80335197 254.68059061 281.80335197 254.68059061 275.27319336 238.20678711 C271.58673638 228.9543703 268.00262168 219.74996179 265.0625 210.23046875 C261.71885173 197.59174277 261.71885173 197.59174277 254.12744141 187.61523438 C248.97618763 185.34949343 243.86063683 185.23209508 238.30517578 185.26123047 C232.65227079 185.12480908 227.12738922 184.00267047 221.5625 183.0625 C218.52221418 182.60748348 215.48072258 182.16163261 212.4387207 181.71826172 C209.81988453 181.28235713 207.2431908 180.77405502 204.64575195 180.23071289 C198.79467269 179.04775339 192.91517413 178.29055724 186.9921875 177.56640625 C185.82606934 177.42179459 184.65995117 177.27718292 183.45849609 177.12818909 C179.68134167 176.663035 175.90332087 176.20557696 172.125 175.75 C170.19530365 175.5156424 170.19530365 175.5156424 168.22662354 175.27655029 C147.15242812 172.73013553 126.09782324 170.73678332 104.90966797 169.46533203 C101.69752679 169.22147502 98.52966689 168.84129622 95.33633423 168.42578125 C91.56246544 167.99476585 87.77736807 167.82817802 83.984375 167.65234375 C83.07149719 167.60918533 82.15861938 167.56602692 81.21807861 167.52156067 C29.05941646 165.14724329 -23.33017917 165.18663311 -75.484375 167.65234375 C-76.3171698 167.69095016 -77.1499646 167.72955658 -78.00799561 167.76933289 C-82.96539698 168.02379794 -87.82824927 168.54488973 -92.75 169.1875 C-94.69266087 169.27771645 -96.63553529 169.36641023 -98.5793457 169.42700195 C-125.54673558 170.30852044 -152.57168624 174.10132126 -179.28515625 177.71972656 C-181.68816449 178.04414622 -184.09186629 178.36345379 -186.49609375 178.67871094 C-199.56951724 180.39484867 -212.56786915 182.45521047 -225.5625 184.6875 C-226.81998047 184.90019531 -228.07746094 185.11289062 -229.37304688 185.33203125 C-231.78418466 185.74594959 -234.19266689 186.17576014 -236.59765625 186.62402344 C-238.47570158 186.95972113 -240.36395309 187.25075722 -242.26171875 187.44628906 C-244.64691428 187.67839246 -244.64691428 187.67839246 -247.75 189.1875 C-249.88554216 192.18533652 -250.94316805 195.47326905 -252.125 198.9375 C-252.97500647 201.23104603 -253.82671388 203.52396205 -254.6796875 205.81640625 C-255.1612702 207.14073781 -255.64270885 208.46512176 -256.12402344 209.78955078 C-258.97334047 217.56402706 -262.06408186 225.24773803 -265.09957886 232.95083618 C-267.04815521 237.90376711 -268.98252321 242.86223918 -270.91796875 247.8203125 C-274.18758509 256.19160262 -277.4611974 264.5613179 -280.73828125 272.9296875 C-281.55468822 275.01472954 -282.37109448 277.09977185 -283.1875 279.18481445 C-284.36101111 282.18181299 -285.53460244 285.17877994 -286.70849609 288.17562866 C-287.79170597 290.94116185 -288.87443822 293.70688155 -289.95703125 296.47265625 C-290.29159332 297.32665512 -290.6261554 298.18065399 -290.97085571 299.06053162 C-293.30241267 305.01966593 -295.59268531 310.99312066 -297.84643555 316.98217773 C-298.75 319.1875 -298.75 319.1875 -299.75 320.1875 C-301.30341924 320.2844461 -302.8612614 320.31121669 -304.41770267 320.31054783 C-305.43336184 320.31253888 -306.449021 320.31452993 -307.49545771 320.31658131 C-308.62481082 320.31366847 -309.75416393 320.31075563 -310.91773987 320.30775452 C-312.70149211 320.30903615 -312.70149211 320.30903615 -314.52127975 320.31034368 C-317.83690015 320.31171188 -321.15246225 320.30856438 -324.46807563 320.30356562 C-328.03796191 320.29926445 -331.60784624 320.30070731 -335.17773438 320.3014679 C-341.36774183 320.30199334 -347.55773879 320.29884438 -353.74774361 320.29323006 C-362.69755337 320.28511786 -371.64735802 320.28250013 -380.59717106 320.28124207 C-395.1161345 320.2790511 -409.63509234 320.27238982 -424.15405273 320.26293945 C-438.26147432 320.25376648 -452.36889439 320.24668508 -466.47631836 320.24243164 C-467.77974784 320.24203756 -467.77974784 320.24203756 -469.10950924 320.24163551 C-473.46860333 320.24033051 -477.82769743 320.23906679 -482.18679154 320.23782361 C-518.37453165 320.22744962 -554.56226539 320.2098301 -590.75 320.1875 C-587.21283951 316.61870455 -583.59422002 313.23371918 -579.75 310 C-579.18385986 309.52224121 -578.61771973 309.04448242 -578.03442383 308.55224609 C-573.72446736 304.94282896 -569.3136979 301.49562232 -564.83569336 298.09667969 C-560.42138064 294.7355212 -556.10845906 291.26080891 -551.8125 287.75 C-543.9703499 281.3445011 -536.02263435 275.08373916 -528.04101562 268.85351562 C-520.42585264 262.9055263 -512.88240868 256.87946769 -505.39501953 250.77124023 C-500.56822807 246.83792376 -495.69829111 242.9674446 -490.75 239.1875 C-494.08931431 236.46001727 -497.49068846 233.93347213 -501.0625 231.51953125 C-502.11864502 230.8042627 -503.17479004 230.08899414 -504.26293945 229.35205078 C-505.42526775 228.56799647 -506.58762215 227.78398085 -507.75 227 C-508.98213759 226.16668518 -510.21414912 225.33318393 -511.44604492 224.49951172 C-514.82529273 222.21347684 -518.20636252 219.93015041 -521.58782959 217.6473999 C-524.54233006 215.65251785 -527.49595291 213.65633842 -530.44955444 211.66012573 C-532.75826682 210.09977393 -535.06711071 208.53961688 -537.37597656 206.97949219 C-540.50188069 204.86723614 -543.62749866 202.75455756 -546.75292969 200.64160156 C-553.73110196 195.92476054 -560.7109988 191.21066463 -567.70353699 186.51513672 C-570.61594815 184.55871145 -573.52608943 182.59892714 -576.43588257 180.63861084 C-577.80377098 179.71837992 -579.17275786 178.79977956 -580.5428772 177.88287354 C-582.42197682 176.62519222 -584.29731474 175.36208948 -586.171875 174.09765625 C-587.22987305 173.38746338 -588.28787109 172.67727051 -589.37792969 171.94555664 C-591.75 170.1875 -591.75 170.1875 -592.75 168.1875 C-537.64 168.1875 -482.53 168.1875 -425.75 168.1875 C-428.89115117 157.71699611 -431.97321641 147.4566916 -435.47265625 137.1484375 C-437.02832499 132.434069 -438.34844266 127.65445111 -439.6875 122.875 C-441.54407876 116.24903701 -443.52244705 109.69819204 -445.75 103.1875 C-448.0496907 96.4439257 -450.14769793 89.65773145 -452.125 82.8125 C-452.38796875 81.91402344 -452.6509375 81.01554687 -452.921875 80.08984375 C-453.16164063 79.24808594 -453.40140625 78.40632813 -453.6484375 77.5390625 C-453.86161621 76.79479004 -454.07479492 76.05051758 -454.29443359 75.28369141 C-454.75 73.1875 -454.75 73.1875 -454.75 69.1875 C-432.68345485 62.3619957 -410.56124738 55.74936401 -388.11865234 50.26538086 C-382.35344397 48.85421136 -376.63981682 47.33265117 -370.9375 45.6875 C-360.27826318 42.65133518 -349.44862209 40.38770322 -338.62158203 38.03955078 C-334.59473449 37.15332945 -330.5763474 36.23489937 -326.55859375 35.30859375 C-303.54914836 30.02813543 -280.41234866 25.69172644 -257.16210938 21.61349487 C-254.83022946 21.20166907 -252.49989028 20.78211192 -250.16992188 20.35961914 C-241.34756158 18.765408 -232.5184931 17.39223295 -223.625 16.25 C-221.65818697 15.99369479 -219.691374 15.73738922 -217.7245636 15.48106384 C-215.71057702 15.21921101 -213.69635785 14.95919978 -211.68212891 14.69921875 C-207.97785065 14.21715199 -204.27587093 13.72053065 -200.57421875 13.21875 C-192.63952493 12.15175982 -184.69784008 11.15067635 -176.75 10.1875 C-175.55198761 10.04184601 -175.55198761 10.04184601 -174.32977295 9.89324951 C-148.5410586 6.77571221 -122.73357295 4.55663028 -96.8125 2.9375 C-96.14614532 2.89571625 -95.47979065 2.8539325 -94.79324341 2.81088257 C-86.57014837 2.29663213 -78.34575078 1.81407308 -70.11859131 1.36953735 C-68.01365172 1.25578724 -65.90884627 1.13949308 -63.80426025 1.01937866 C-42.5573799 -0.17545032 -21.27274923 -0.01141341 0 0 Z M-99.25 15.4375 C-100.05774872 15.4993045 -100.86549744 15.56110901 -101.69772339 15.62478638 C-140.180228 18.5836308 -178.88916437 21.88792668 -216.93359375 28.54296875 C-220.55434407 29.15445678 -224.17021678 29.66114333 -227.8125 30.125 C-246.22703786 32.51751717 -264.45157561 35.80187126 -282.63378906 39.55078125 C-285.72979936 40.18337251 -288.82880177 40.79804084 -291.9296875 41.40625 C-307.26119967 44.41587222 -322.52259957 47.68924513 -337.75 51.1875 C-338.47435242 51.35376892 -339.19870483 51.52003784 -339.94500732 51.69134521 C-359.33588001 56.14898753 -378.61151611 60.80498569 -397.72998047 66.33154297 C-404.3698491 68.21346532 -411.04960634 69.95474984 -417.72558594 71.70361328 C-424.83468169 73.59093338 -431.79783011 75.78665618 -438.75 78.1875 C-438.18260132 82.31723628 -438.18260132 82.31723628 -436.75 86.1875 C-428.58787287 85.02299207 -420.58769727 83.56663141 -412.5625 81.6875 C-396.80761561 78.08648278 -380.95187481 74.99350414 -365.0949707 71.87890625 C-353.87872608 69.66675491 -342.7067653 67.34196951 -331.57951355 64.71409607 C-330.72416519 64.51397415 -329.86881683 64.31385223 -328.98754883 64.10766602 C-328.23870926 63.92961929 -327.48986969 63.75157257 -326.71833801 63.56813049 C-324.75 63.1875 -324.75 63.1875 -321.75 63.1875 C-325.39401131 64.42211073 -329.04055633 65.64908109 -332.6875 66.875 C-334.19086914 67.38450195 -334.19086914 67.38450195 -335.72460938 67.90429688 C-341.69233269 69.90600971 -347.68236113 71.77796954 -353.7265625 73.53125 C-362.99010146 76.22065179 -372.17308492 79.14794745 -381.35803223 82.09295654 C-386.17859452 83.63828585 -391.00125584 85.17702554 -395.82421875 86.71484375 C-396.76746002 87.01561829 -397.71070129 87.31639282 -398.68252563 87.62628174 C-410.01167549 91.23352764 -421.37242146 94.73605989 -432.75 98.1875 C-432.09835112 101.5637789 -431.30450029 104.7461296 -430.1875 108 C-429.70833333 109.39583333 -429.22916667 110.79166667 -428.75 112.1875 C-417.37075373 110.64970037 -406.06479509 108.7601276 -394.75 106.8125 C-392.92586849 106.49988444 -391.10173108 106.18730325 -389.27758789 105.87475586 C-376.75375935 103.72458997 -364.24169765 101.51793259 -351.75 99.1875 C-352.78326416 99.52406616 -352.78326416 99.52406616 -353.83740234 99.86743164 C-369.86176681 105.10581491 -385.81248373 110.54393379 -401.70318604 116.17526245 C-403.61209251 116.85104232 -405.5218883 117.52431521 -407.43255615 118.19509888 C-410.13089899 119.14352051 -412.8256229 120.10156644 -415.51953125 121.0625 C-416.33796005 121.34858627 -417.15638885 121.63467255 -417.99961853 121.9294281 C-422.11667258 123.12036516 -422.11667258 123.12036516 -424.75 126.1875 C-424.42299925 128.04882723 -424.42299925 128.04882723 -423.75390625 130.1015625 C-423.52509766 130.86210937 -423.29628906 131.62265625 -423.06054688 132.40625 C-422.81369141 133.2003125 -422.56683594 133.994375 -422.3125 134.8125 C-422.06951172 135.61429687 -421.82652344 136.41609375 -421.57617188 137.2421875 C-420.97395927 139.22594668 -420.36281311 141.20698982 -419.75 143.1875 C-411.47471308 142.64755811 -403.54478688 141.26822883 -395.4375 139.5625 C-392.79477185 139.01949659 -390.15175158 138.47843467 -387.5078125 137.94140625 C-386.81424149 137.80032944 -386.12067047 137.65925262 -385.40608215 137.51390076 C-374.98497443 135.40904905 -364.51921195 133.5366949 -354.05932617 131.63623047 C-344.60223165 129.91509275 -335.16869151 128.10877751 -325.75 126.1875 C-326.36709335 126.37387527 -326.98418671 126.56025055 -327.61997986 126.75227356 C-344.51790755 131.87014776 -361.33721675 137.20179537 -378.08231544 142.79885674 C-381.5887884 143.97083585 -385.09774181 145.13380699 -388.61352539 146.27758789 C-392.09272664 147.40962194 -395.56465055 148.56169911 -399.03223991 149.72879982 C-400.33803886 150.16452763 -401.6462412 150.59312322 -402.95681953 151.01425743 C-404.76351127 151.59633746 -406.56091342 152.20701966 -408.35766602 152.8190918 C-409.37844742 153.15692184 -410.39922882 153.49475189 -411.45094299 153.84281921 C-413.98625475 154.99164598 -413.98625475 154.99164598 -414.62193298 157.69563293 C-414.76159211 160.4130537 -414.36784635 162.00938261 -413.3125 164.5 C-412.79166667 165.72916667 -412.27083333 166.95833333 -411.75 168.1875 C-403.09775714 167.36534118 -394.56401903 165.8852643 -386 164.4375 C-384.4085527 164.17026685 -382.81708106 163.90317867 -381.22558594 163.63623047 C-366.7257565 161.19984218 -352.23547611 158.70774281 -337.75 156.1875 C-338.97227295 156.58912354 -340.1945459 156.99074707 -341.45385742 157.40454102 C-355.72723925 162.11657932 -369.90211075 167.08497062 -384.0625 172.125 C-386.27923119 172.91229434 -388.49602776 173.69940463 -390.71289062 174.48632812 C-396.05934567 176.38460782 -401.40500297 178.28511909 -406.75 180.1875 C-406.83451056 185.29335481 -406.83451056 185.29335481 -405.25 190.0625 C-404.755 191.09375 -404.26 192.125 -403.75 193.1875 C-396.00963224 192.63515916 -388.62441405 191.20069088 -381.0625 189.5 C-370.96100702 187.28178258 -360.84582518 185.19150509 -350.6875 183.25 C-339.1975431 181.05183233 -327.71982146 178.80092046 -316.25 176.5 C-315.52932343 176.35547394 -314.80864685 176.21094788 -314.06613159 176.06204224 C-310.63380179 175.37354913 -307.20161666 174.68433919 -303.76953125 173.99462891 C-297.43058244 172.72111681 -291.09024939 171.45451838 -284.75 170.1875 C-285.47550049 170.40253174 -286.20100098 170.61756348 -286.94848633 170.83911133 C-302.33378203 175.40735145 -317.68922729 180.06245913 -333 184.875 C-333.75030487 185.11081787 -334.50060974 185.34663574 -335.27365112 185.58959961 C-344.09362591 188.36551291 -352.88882743 191.20073935 -361.63989258 194.18774414 C-368.15359785 196.38305947 -374.76469726 198.21570695 -381.38305664 200.06616211 C-387.61879905 201.82306478 -393.72669884 203.78946441 -399.75 206.1875 C-399.255 208.6625 -399.255 208.6625 -398.75 211.1875 C-391.20547652 209.79763648 -383.83538266 207.95923343 -376.4375 205.9375 C-375.28797852 205.6266748 -374.13845703 205.31584961 -372.95410156 204.99560547 C-367.07144658 203.39725303 -361.20979713 201.74638567 -355.36621094 200.01123047 C-339.14328759 195.22068088 -322.63092296 191.53858237 -306.15356445 187.74279785 C-303.86777306 187.21470922 -301.583113 186.68202386 -299.29882812 186.14746094 C-264.03734653 177.90825731 -228.39718236 171.00018335 -192.43847656 166.65429688 C-188.38681078 166.14153642 -184.34617057 165.57109326 -180.3046875 164.984375 C-159.13611179 161.91606081 -137.96477822 159.30057906 -116.65380859 157.44329834 C-113.65775242 157.17937385 -110.66292396 156.90355734 -107.66796875 156.62744141 C-36.02754052 150.15288157 45.09268883 144.70724733 116.25 157.1875 C117.82343771 157.33210194 119.39933806 157.45211737 120.9765625 157.546875 C157.90481932 159.98050556 194.83579514 164.6129103 231.25 171.1875 C232.66510361 171.44264374 232.66510361 171.44264374 234.10879517 171.70294189 C280.9605947 180.16386743 327.93776971 189.01303139 373.625 202.625 C374.31706543 202.82963867 375.00913086 203.03427734 375.72216797 203.24511719 C379.43847203 204.34469466 383.15007572 205.45906828 386.859375 206.58203125 C387.99366943 206.9224646 387.99366943 206.9224646 389.15087891 207.26977539 C390.58674952 207.70085181 392.02142185 208.13594954 393.45458984 208.57592773 C397.73011816 209.85585962 401.83484572 210.65997507 406.25 211.1875 C406.58 209.5375 406.91 207.8875 407.25 206.1875 C405.37845011 205.42893161 403.50246199 204.68131549 401.625 203.9375 C400.58085938 203.51984375 399.53671875 203.1021875 398.4609375 202.671875 C393.70150572 200.90408605 388.80638853 199.6048954 383.921875 198.23193359 C378.27218959 196.62492866 372.66871581 194.87664271 367.0625 193.125 C365.83563477 192.74287354 364.60876953 192.36074707 363.34472656 191.96704102 C359.31217225 190.71031836 355.28097523 189.44927697 351.25 188.1875 C350.53882019 187.96497559 349.82764038 187.74245117 349.09490967 187.51318359 C329.7914362 181.47247246 310.50414027 175.38395525 291.25 169.1875 C292.7803186 169.5117395 292.7803186 169.5117395 294.34155273 169.8425293 C298.26475773 170.673367 302.18835914 171.50232064 306.11206055 172.33081055 C307.78436344 172.68416756 309.45656973 173.03798217 311.12866211 173.39233398 C322.21067626 175.74041761 333.30608395 178.0103221 344.41641235 180.22055054 C352.40477123 181.81199535 360.38526085 183.43959685 368.36328125 185.08203125 C370.72460052 185.56710038 373.08592864 186.05212645 375.44726562 186.53710938 C379.04866245 187.27695912 382.64978579 188.01804658 386.25024414 188.76245117 C389.80803089 189.49755844 393.36679758 190.22774415 396.92578125 190.95703125 C398.00789383 191.18195755 399.09000641 191.40688385 400.20491028 191.6386261 C401.20503647 191.84271591 402.20516266 192.04680573 403.2355957 192.25708008 C404.11061234 192.43741287 404.98562897 192.61774567 405.88716125 192.80354309 C408.50906341 193.29442952 408.50906341 193.29442952 412.25 193.1875 C412.78394179 191.7757217 413.30165104 190.35779756 413.8125 188.9375 C414.24755859 187.75414062 414.24755859 187.75414062 414.69140625 186.546875 C415.3299019 183.85001226 415.34421045 182.72422277 414.25 180.1875 C411.97291478 178.85896693 411.97291478 178.85896693 409.06274414 177.9609375 C407.95391373 177.57373535 406.84508331 177.1865332 405.70265198 176.78759766 C404.49237839 176.38331543 403.2821048 175.9790332 402.03515625 175.5625 C400.13986867 174.9071591 398.24458152 174.25181696 396.3493185 173.59640503 C393.68330017 172.67920282 391.0122115 171.7772529 388.34118652 170.87475586 C384.35016169 169.52272085 380.36627219 168.1498522 376.38181973 166.77859497 C373.27250311 165.7087447 370.16189549 164.64351628 367.04786682 163.58740234 C360.36299298 161.31128747 353.77262391 158.89530848 347.25 156.1875 C347.96241348 156.31549484 348.67482697 156.44348969 349.40882874 156.57536316 C356.48111103 157.84563134 363.55492065 159.10724135 370.62939453 160.36523438 C373.89366193 160.94576084 377.15759696 161.52812251 380.42138672 162.11132812 C384.94425482 162.91910582 389.46796626 163.72202373 393.9921875 164.52218628 C395.78558757 164.84011274 397.5787214 165.15954476 399.37158203 165.48049927 C401.91238963 165.9350439 404.45410585 166.38414108 406.99609375 166.83203125 C407.75647446 166.96929626 408.51685516 167.10656128 409.30027771 167.24798584 C413.06202972 167.90495572 416.40049596 168.1875 420.25 168.1875 C421.735 162.2475 421.735 162.2475 423.25 156.1875 C395.00575888 146.24589705 366.68460957 136.57089928 338.25 127.1875 C352.55046341 129.79535981 366.82880007 132.4784931 381.07373047 135.375 C389.23762447 137.02001228 397.42588628 138.48203444 405.64160156 139.84399414 C409.65761615 140.51809517 413.59398607 141.24040388 417.52734375 142.30078125 C420.94106317 143.11391274 423.7629117 143.36185441 427.25 143.1875 C428.09080019 140.77320231 428.92281402 138.35646007 429.75 135.9375 C429.98847656 135.25558594 430.22695312 134.57367188 430.47265625 133.87109375 C431.64421287 130.42336997 432.25 127.87047096 432.25 124.1875 C431.55223953 123.94804153 430.85447906 123.70858307 430.13557434 123.46186829 C423.50181969 121.18480842 416.86887027 118.90542097 410.2367754 116.6235323 C406.82860606 115.45098016 403.4201512 114.27927395 400.01098633 113.10961914 C396.70992173 111.97701557 393.40968236 110.84203581 390.10996056 109.70552635 C388.26247797 109.06985893 386.41418703 108.43654238 384.56587219 107.80329895 C376.72279226 105.09905273 368.97332439 102.21625957 361.25 99.1875 C362.49692627 99.42766846 363.74385254 99.66783691 365.02856445 99.9152832 C377.50813075 102.31057231 390.00086327 104.62213359 402.51098633 106.85229492 C405.47477787 107.38165821 408.43756541 107.91642991 411.40039062 108.45117188 C413.32285754 108.79460198 415.24538151 109.13771286 417.16796875 109.48046875 C418.03479782 109.63774948 418.90162689 109.79503021 419.79472351 109.95707703 C425.59534118 110.98270935 431.38177209 111.6793283 437.25 112.1875 C437.48009766 111.45885742 437.71019531 110.73021484 437.94726562 109.97949219 C438.49609375 108.24153646 439.04492188 106.50358073 439.59375 104.765625 C440.41445285 101.98482471 440.41445285 101.98482471 440.25 98.1875 C439.2297876 97.86587891 438.2095752 97.54425781 437.15844727 97.21289062 C433.23477546 95.97579653 429.31132979 94.73798645 425.38793945 93.5 C423.71579697 92.97247225 422.04359962 92.44511836 420.37133789 91.91796875 C410.32320168 88.75032351 400.2824397 85.56078036 390.25 82.34375 C376.41165426 77.90798895 362.55054283 73.54534146 348.6875 69.1875 C346.19985208 68.40500423 343.71222179 67.62245239 341.22460938 66.83984375 C335.23327492 64.9550864 329.24172757 63.07100722 323.25 61.1875 C331.95067548 62.97513991 340.65084085 64.76525269 349.35061646 66.55726624 C350.77897405 66.85148182 352.20733907 67.14566133 353.63571167 67.43980408 C376.55391444 72.15966267 399.45579425 76.94987902 422.33691406 81.84692383 C423.36540466 82.06615005 424.39389526 82.28537628 425.45355225 82.51124573 C427.34871306 82.91520679 429.24348441 83.32100184 431.13775635 83.72911072 C435.8304279 84.72781918 440.49118652 85.57371939 445.25 86.1875 C445.91 83.5475 446.57 80.9075 447.25 78.1875 C436.29967842 74.86125409 425.34035428 71.59601208 414.30078125 68.578125 C410.62390455 67.5724583 406.95738863 66.53449817 403.29296875 65.484375 C360.49717273 53.31759444 316.99191687 44.19047108 273.25 36.1875 C272.40083008 36.0318457 271.55166016 35.87619141 270.67675781 35.71582031 C266.72882144 34.99591296 262.7765495 34.30466422 258.82098389 33.62811279 C256.96169524 33.30946966 255.10272589 32.98896155 253.24395752 32.66729736 C234.31618903 29.40062709 215.37555482 26.56365081 196.3125 24.1875 C195.64282322 24.10341637 194.97314644 24.01933273 194.28317642 23.93270111 C172.54020732 21.20373871 150.78439877 19.01483395 128.9375 17.3125 C127.6908255 17.21517578 126.444151 17.11785156 125.15969849 17.01757812 C117.7834767 16.45006825 110.40507329 15.93086732 103.02313232 15.44363403 C99.24966657 15.18747737 95.47892836 14.9035739 91.70751953 14.61889648 C64.07321937 12.66049993 36.40943255 12.92056679 8.72021484 12.99188232 C3.41680096 13.00272592 -1.88658701 13.00234952 -7.19001007 13.00174427 C-12.39124243 13.00201924 -17.59245891 13.00755104 -22.79368591 13.01474571 C-25.23310731 13.01786912 -27.67253045 13.01988446 -30.11195374 13.02063942 C-53.1907737 13.03562898 -76.23702579 13.63685889 -99.25 15.4375 Z " fill="#414141" transform="translate(605.75,185.8125)"/>
<path d="M0 0 C0.66621494 -0.001031 1.33242989 -0.002062 2.01883316 -0.00312424 C26.28809666 -0.03806824 50.50422681 0.65123387 74.75 1.6875 C75.54329082 1.72127243 76.33658165 1.75504486 77.15391159 1.7898407 C82.46107205 2.016867 87.76777609 2.25288915 93.07421875 2.49609375 C93.74831535 2.52667059 94.42241196 2.55724743 95.11693573 2.58875084 C99.43350371 2.78657751 103.74817998 3.00819051 108.0625 3.25 C109.27974762 3.31720245 110.49699524 3.38440491 111.75112915 3.4536438 C113.49237564 3.56565628 113.49237564 3.56565628 115.26879883 3.67993164 C116.81160271 3.77631676 116.81160271 3.77631676 118.38557434 3.87464905 C122.28964228 4.42206642 124.1777588 5.59915674 127.0625 8.25 C129.5303316 11.95174739 129.74322732 14.95493475 129.0625 19.25 C126.0625 24.75 126.0625 24.75 123.0625 26.25 C120.98494198 26.35616183 118.90393661 26.39667983 116.82369995 26.40821838 C116.17678983 26.41315636 115.52987971 26.41809434 114.86336625 26.42318195 C112.68609448 26.43859414 110.50885228 26.44692758 108.33154297 26.45532227 C106.77461485 26.46489787 105.21768935 26.47490776 103.6607666 26.48532104 C99.42549962 26.51241061 95.19022146 26.53339819 90.95491552 26.55332303 C86.53194471 26.57515764 82.10900855 26.60255866 77.68606567 26.62937927 C69.30673335 26.67934037 60.92738184 26.7242665 52.5480119 26.76740164 C43.01003466 26.81674484 33.47209219 26.87167377 23.93414855 26.92708123 C4.31029807 27.04095372 -15.31358558 27.14778126 -34.9375 27.25 C-35.2675 28.9 -35.5975 30.55 -35.9375 32.25 C-32.62637578 33.35370807 -30.21965708 33.35944296 -26.73271179 33.33660889 C-25.43306488 33.33075775 -24.13341797 33.32490662 -22.79438782 33.31887817 C-21.35079914 33.30736448 -19.9072109 33.29579649 -18.46362305 33.28417969 C-16.94584418 33.27571347 -15.42806238 33.26776088 -13.91027832 33.26028442 C-10.63961105 33.24355476 -7.3689745 33.22412363 -4.09833336 33.20290375 C1.07449069 33.17031677 6.24731862 33.14959251 11.42021179 33.13165283 C12.293105 33.12856637 13.16599821 33.1254799 14.06534272 33.12229991 C15.85037797 33.11599182 17.63541329 33.10970207 19.42044866 33.10343027 C31.46424915 33.06041566 43.5079036 33.00863145 55.55151367 32.92773438 C63.67428727 32.87326534 71.79692941 32.83656107 79.91987199 32.82022786 C84.21827815 32.81085195 88.51621141 32.79228139 92.8144474 32.75191498 C96.85860742 32.7140457 100.90218073 32.69950994 104.94651031 32.70275497 C106.42920168 32.69978635 107.9119049 32.68825083 109.39445305 32.66743088 C121.99397153 32.49837469 121.99397153 32.49837469 125.92887878 35.65948486 C128.53459723 38.82319219 129.25998251 40.4853737 129.4375 44.5 C129.48648438 45.24765625 129.53546875 45.9953125 129.5859375 46.765625 C128.97978872 49.64256994 128.02784033 51.72692654 126.08577919 53.95019913 C121.25412546 57.0541641 114.48039901 56.07139973 108.89916992 56.02294922 C107.3319344 56.03112189 105.76471071 56.04192538 104.19750977 56.05516052 C99.94769618 56.08360087 95.69865732 56.07524357 91.44880462 56.06029272 C87.00577051 56.05091556 82.56292583 56.07536067 78.11994934 56.09622192 C69.70875172 56.13057432 61.29782594 56.13449782 52.88657218 56.12749684 C43.30977225 56.12100671 33.73316342 56.14842681 24.15642011 56.17869925 C4.4584256 56.24020545 -15.23941989 56.25911434 -34.9375 56.25 C-35.52820014 58.19603274 -35.52820014 58.19603274 -35.9375 60.25 C-34.86891305 61.54261993 -34.86891305 61.54261993 -32.36087418 61.37469864 C-31.20314373 61.3746571 -30.04541328 61.37461555 -28.8526001 61.37457275 C-27.88880829 61.37668798 -27.88880829 61.37668798 -26.90554595 61.37884593 C-24.73681376 61.38251709 -22.56814623 61.37915463 -20.39941406 61.37597656 C-18.85074818 61.37737048 -17.30208267 61.37926923 -15.75341797 61.38163757 C-12.41015568 61.38614391 -9.06690569 61.38799086 -5.72364044 61.38809967 C-0.43777843 61.3892373 4.8480133 61.40205602 10.1338501 61.41766357 C11.02493587 61.42023643 11.91602165 61.42280928 12.83411002 61.4254601 C14.65670527 61.430727 16.47930047 61.43601248 18.30189562 61.44131613 C30.61305826 61.47645913 42.92413465 61.50297824 55.23535156 61.50048828 C63.53217965 61.49890041 71.82876931 61.51492038 80.12552094 61.55119491 C84.51828954 61.56967255 88.91066002 61.57898252 93.30345917 61.56671906 C97.43718423 61.55529155 101.5701967 61.56696376 105.7038269 61.59635353 C107.22074342 61.60300066 108.73772503 61.60111598 110.25461578 61.59005547 C112.32715202 61.57619797 114.39727775 61.59305559 116.46966553 61.61749268 C117.62890408 61.61895924 118.78814262 61.6204258 119.98250961 61.6219368 C123.97508109 62.43609104 125.46227613 64.19934133 128.0625 67.25 C128.3925 67.58 128.7225 67.91 129.0625 68.25 C129.61538639 72.00172905 129.90083266 75.70928052 128.05078125 79.109375 C125.96547985 81.63929021 123.78772674 83.43318217 121.0625 85.25 C118.24142933 85.49609566 118.24142933 85.49609566 114.7414093 85.49050903 C113.77588781 85.49307231 113.77588781 85.49307231 112.79086083 85.49568737 C110.63039938 85.49898601 108.47024737 85.48797266 106.30981445 85.47705078 C104.76259366 85.47648675 103.21537233 85.47680307 101.66815186 85.47793579 C97.46387142 85.47851061 93.25970465 85.46673543 89.05545068 85.45278788 C84.66320891 85.44030203 80.27096466 85.43911171 75.87870789 85.43673706 C67.55957189 85.43051597 59.24048834 85.41409666 50.92137545 85.39403808 C41.45111858 85.37169862 31.98085922 85.36069057 22.51058257 85.35064721 C3.02785862 85.32973098 -16.45481647 85.2945428 -35.9375 85.25 C-35.6075 86.9 -35.2775 88.55 -34.9375 90.25 C-34.12781926 90.25146656 -33.31813852 90.25293312 -32.483922 90.25444412 C-12.787389 90.29148726 6.90897158 90.35046882 26.6053648 90.43390274 C36.13038607 90.47372105 45.65532439 90.50609934 55.18041992 90.52099609 C63.48199181 90.53399816 71.78338139 90.56092575 80.08485061 90.60461307 C84.48091891 90.6272605 88.87676209 90.64290872 93.27289391 90.64188385 C97.41064951 90.64113917 101.54790682 90.6590123 105.68553352 90.69116783 C107.20405175 90.69968688 108.72262574 90.70140315 110.24115753 90.69580269 C112.31566691 90.68917083 114.38858707 90.70705986 116.4629364 90.73101807 C118.20374245 90.73654882 118.20374245 90.73654882 119.9797163 90.74219131 C123.71333103 91.35720754 125.3770784 92.6363515 128.0625 95.25 C129.61274464 98.35048928 129.35242015 100.82894218 129.0625 104.25 C126.85901999 107.79130715 124.88358764 109.67673408 121.0625 111.25 C118.71081543 111.60440063 118.71081543 111.60440063 116.04492188 111.75244141 C115.02281113 111.81233246 114.00070038 111.87222351 112.94761658 111.93392944 C111.25651512 112.01690781 111.25651512 112.01690781 109.53125 112.1015625 C108.32106705 112.16550201 107.11088409 112.22944153 105.86402893 112.2953186 C102.47978107 112.46687491 99.09546395 112.62731081 95.71028519 112.77882385 C94.27960264 112.8428887 92.84896574 112.90798104 91.41837692 112.97410583 C61.32734773 114.36418473 31.24385214 114.52412731 1.125 114.5 C0.02699066 114.49959969 -1.07101868 114.49919937 -2.20230103 114.49878693 C-8.62101919 114.49604414 -15.03964833 114.48541621 -21.45833015 114.46332932 C-23.42009171 114.45667096 -25.38185763 114.45116741 -27.34362602 114.44697952 C-88.20878344 114.29162061 -88.20878344 114.29162061 -108.53222656 94.73632812 C-112.50585191 90.53350827 -115.68178439 85.43758578 -117.80078125 80.05859375 C-119.41379888 77.49217739 -121.08894617 77.21563951 -123.9375 76.25 C-152.31666062 70.51612947 -182.12011709 71.8877267 -210.90194321 71.93254852 C-214.40383926 71.93754112 -217.90572401 71.9390399 -221.40762329 71.94000244 C-252.50507696 71.95824468 -283.45795812 72.27968635 -314.46777344 74.80957031 C-336.39301506 76.59700379 -358.33842792 77.76983434 -380.3125 78.75 C-396.15982352 79.45879478 -411.99600818 80.21667307 -427.82421875 81.2734375 C-441.3359522 82.1722056 -454.84225811 82.88556262 -468.375 83.375 C-469.51508514 83.41669312 -470.65517029 83.45838623 -471.82980347 83.50134277 C-492.76402432 84.24154333 -513.69115934 84.46727847 -534.63689041 84.4958725 C-536.96748549 84.49994321 -539.29804792 84.50743878 -541.62863159 84.51568604 C-555.877161 84.55968625 -570.09820562 84.55151567 -584.30859375 83.359375 C-585.24204117 83.28189026 -586.17548859 83.20440552 -587.13722229 83.12457275 C-594.60696797 82.39677706 -594.60696797 82.39677706 -597.9375 80.25 C-600.46658223 73.44708894 -600.23675674 66.55827474 -600.1875 59.375 C-600.19523438 58.25480469 -600.20296875 57.13460937 -600.2109375 55.98046875 C-600.17010234 38.48260234 -600.17010234 38.48260234 -595.9375 34.25 C-585.24319811 30.6852327 -574.64514964 30.97319051 -563.50390625 31.01953125 C-561.58422375 31.02072788 -559.66454065 31.02117519 -557.74485779 31.0209198 C-553.71438942 31.02248089 -549.68401031 31.03072446 -545.65356445 31.04418945 C-540.60020295 31.06089561 -535.54694076 31.06491297 -530.49355507 31.06438541 C-496.26829145 31.06516412 -462.14225479 31.92878385 -427.95954514 33.58953857 C-425.88445948 33.69006964 -423.80932 33.78941497 -421.73416138 33.88842773 C-396.35116872 35.10011109 -370.98408308 36.45550448 -345.62651062 38.11787415 C-337.60517632 38.64277323 -329.58285523 39.15084892 -321.55976868 39.64823914 C-316.19844185 39.98091045 -310.83781294 40.32102802 -305.47802734 40.67773438 C-275.14292684 42.68140926 -244.91589146 43.54316532 -214.52187347 43.56052017 C-211.92450598 43.56246297 -209.3271594 43.56756241 -206.72979736 43.5730896 C-189.46380141 43.60030884 -172.24205177 43.39459602 -155.00390625 42.35546875 C-153.06885475 42.23961174 -153.06885475 42.23961174 -151.0947113 42.12141418 C-130.65812838 41.9428293 -130.65812838 41.9428293 -113.30957031 33.47900391 C-111.77640813 31.39742208 -110.41246279 29.26684839 -109.0625 27.0625 C-102.40696054 16.95383696 -93.92503878 7.72150375 -81.70385742 4.69726562 C-55.03369264 -0.59625569 -27.06543985 0.01991755 0 0 Z " fill="#3E3E3E" transform="translate(826.9375,50.75)"/>
<path d="M0 0 C1.51154089 -0.00067622 3.02308167 -0.00164886 4.53462219 -0.00289917 C7.68707322 -0.00436347 10.83949569 -0.00226425 13.99194336 0.00244141 C17.98071691 0.00811318 21.96942275 0.00486775 25.95819378 -0.00113106 C29.07709741 -0.00479235 32.19598574 -0.00357251 35.31488991 -0.00100327 C36.7829063 -0.00034799 38.2509242 -0.00111186 39.71893883 -0.00348282 C48.92356343 -0.0150842 58.05850815 0.29448879 67.24403381 0.88803101 C72.11275968 1.19604284 76.98029897 1.39397972 81.85546875 1.5625 C83.81730951 1.63446439 85.77914182 1.70665939 87.7409668 1.77905273 C89.26287125 1.8345076 89.26287125 1.8345076 90.81552124 1.89108276 C131.72672271 3.3962561 172.61198582 5.49177734 213.46557617 8.13061523 C214.85258224 8.22020256 214.85258224 8.22020256 216.26760864 8.31159973 C217.93236655 8.41964649 219.59706963 8.52854545 221.26168823 8.63871765 C222.88608744 8.74486321 224.5106948 8.8478515 226.13545227 8.94836426 C228.40730663 9.08908407 230.6787066 9.23715966 232.94987488 9.3885498 C245.29122957 10.17571078 257.60507484 10.31341485 269.96875 10.3359375 C271.57707419 10.34017857 271.57707419 10.34017857 273.21788979 10.34450531 C278.91959491 10.35940592 284.62127543 10.36868654 290.32299805 10.37304688 C294.92301582 10.3773822 299.5228408 10.39109285 304.12280273 10.4140625 C339.99821315 10.58943145 375.64511022 9.55583513 411.344594 5.81779099 C479.48580141 -1.31037504 550.64696157 2.03717954 618.64257812 8.80517578 C623.20826 9.23617923 627.77864366 9.569441 632.35253906 9.8996582 C669.59008341 12.61430361 669.59008341 12.61430361 677.86328125 19.61328125 C679.11328125 21.1328125 679.11328125 21.1328125 679.11328125 23.4453125 C674.92945968 34.68933297 660.68875637 40.20007539 650.44799805 44.99169922 C604.91869751 65.4059877 554.74944885 75.82109057 505.11328125 79.1328125 C504.30922852 79.18920898 503.50517578 79.24560547 502.67675781 79.30371094 C496.8250143 79.70103703 490.97588665 79.96266881 485.11328125 80.1328125 C484.12875977 80.16149414 483.14423828 80.19017578 482.12988281 80.21972656 C457.68972323 80.82140079 434.44965387 78.61788338 411.11328125 71.1328125 C410.43249512 70.92350098 409.75170898 70.71418945 409.05029297 70.49853516 C399.96386917 67.66178664 391.79934397 63.4742354 383.40634155 59.0213623 C359.48400447 46.33281303 338.65465956 43.74276406 311.80078125 43.9453125 C309.89721794 43.95284987 307.99365343 43.96009037 306.09008789 43.96704102 C284.87448577 44.04448301 284.87448577 44.04448301 263.73046875 45.61328125 C256.50261802 46.35969943 249.24202258 46.5789432 241.98535156 46.89108276 C212.86881243 48.15711998 183.81100152 50.21106324 154.74487305 52.31103516 C152.97184246 52.43912783 151.19881187 52.56722028 149.42578125 52.6953125 C148.11753891 52.78990753 148.11753891 52.78990753 146.78286743 52.88641357 C130.29168776 54.0761803 113.79500935 55.09761761 97.28643799 56.01171875 C95.02663531 56.13764063 92.76696839 56.2657975 90.50732422 56.39453125 C86.52414205 56.62141468 82.54078318 56.84493045 78.55728149 57.06613159 C77.06812097 57.14908592 75.5790015 57.23278254 74.0899353 57.31741333 C50.06095211 58.67766355 26.02920024 59.34002482 1.96337891 59.37304688 C-0.79163444 59.37748819 -3.54634448 59.39164835 -6.30126953 59.4140625 C-37.92756061 59.66577981 -37.92756061 59.66577981 -48.88671875 56.1328125 C-51.33470743 53.68482382 -51.1495435 53.00293033 -51.19311523 49.63891602 C-51.20910263 48.70777481 -51.22509003 47.77663361 -51.24156189 46.817276 C-51.24692459 45.80894211 -51.25228729 44.80060822 -51.2578125 43.76171875 C-51.26684097 42.72844955 -51.27586945 41.69518036 -51.28517151 40.63059998 C-51.29969694 38.44248361 -51.30856641 36.25432358 -51.31225586 34.06616211 C-51.32415957 30.71198695 -51.37333041 27.35964632 -51.42382812 24.00585938 C-51.43329091 21.88282151 -51.44052663 19.75977231 -51.4453125 17.63671875 C-51.46484482 16.63040909 -51.48437714 15.62409943 -51.50450134 14.58729553 C-51.48771553 12.00691102 -51.42772246 9.65572806 -50.88671875 7.1328125 C-48.14767819 4.6159275 -45.50997508 3.79554375 -41.8828125 3.21875 C-41.14095703 3.09757813 -40.39910156 2.97640625 -39.63476562 2.8515625 C-38.87228516 2.738125 -38.10980469 2.6246875 -37.32421875 2.5078125 C-36.58880859 2.38664063 -35.85339844 2.26546875 -35.09570312 2.140625 C-23.43015438 0.29816923 -11.78727845 -0.01888488 0 0 Z " fill="#3F3F3F" transform="translate(282.88671875,546.8671875)"/>
<path d="M0 0 C-0.14203337 2.37528151 -0.28851612 4.75015251 -0.4375 7.125 C-0.47681641 7.79015625 -0.51613281 8.4553125 -0.55664062 9.140625 C-0.812152 13.15018817 -1.26782413 17.04994196 -2 21 C0.64 21 3.28 21 6 21 C6 22.65 6 24.3 6 26 C3.03 26.33 0.06 26.66 -3 27 C-3.72270855 32.04819608 -4.43428734 37.09780036 -5.13623047 42.14892578 C-5.37579682 43.86190557 -5.6182372 45.57448626 -5.86376953 47.28662109 C-7.24032519 56.90003632 -8.43951757 66.25736047 -8 76 C-1.83889064 76.66011886 1.42463795 75.84243892 6.296875 71.98828125 C9.48682056 68.2642393 9.18479634 64.02744045 9.25 59.3125 C9.35420461 57.33536317 9.4686686 55.35873843 9.59375 53.3828125 C9.68076172 51.97757324 9.68076172 51.97757324 9.76953125 50.54394531 C10.21855017 45.58761359 11.70170945 41.37588432 14 37 C14.40992188 36.20722656 14.81984375 35.41445312 15.2421875 34.59765625 C19.5149504 27.34361529 25.69107154 22.83528434 33.375 19.5625 C40.47177505 18.46127629 47.36792142 17.93904066 54 21 C54 20.01 54 19.02 54 18 C60.93 18 67.86 18 75 18 C73.58506727 25.78213003 72.10996331 33.5362814 70.46484375 41.2734375 C70.19365723 42.55452393 69.9224707 43.83561035 69.64306641 45.15551758 C69.09531279 47.73214929 68.54172977 50.3075496 67.98193359 52.8815918 C67.72621582 54.08726807 67.47049805 55.29294434 67.20703125 56.53515625 C66.85862183 58.14982788 66.85862183 58.14982788 66.50317383 59.79711914 C65.95620017 63.27880153 65.78105891 66.48174207 66 70 C67.77121465 72.23992806 67.77121465 72.23992806 70.05859375 72.01171875 C71.23615234 71.85123047 71.23615234 71.85123047 72.4375 71.6875 C73.21996094 71.58824219 74.00242187 71.48898437 74.80859375 71.38671875 C77.16718092 71.02568895 77.16718092 71.02568895 80 70 C79.93167969 68.98164063 79.86335937 67.96328125 79.79296875 66.9140625 C79.79737552 60.2304583 81.72239254 53.82319292 83.3125 47.375 C83.93486502 44.79978607 84.55596438 42.22426592 85.17578125 39.6484375 C85.4795166 38.3912793 85.78325195 37.13412109 86.09619141 35.83886719 C87.49169524 29.91155699 88.7472223 23.95936716 90 18 C96.93 18 103.86 18 111 18 C110.3161933 23.47045359 109.51074767 28.55663103 108.1875 33.859375 C108.01371826 34.57103821 107.83993652 35.28270142 107.66088867 36.01593018 C107.11146379 38.26167661 106.55584528 40.5058351 106 42.75 C105.62719329 44.2694305 105.25479401 45.78896102 104.8828125 47.30859375 C102.2569985 58.02202099 102.2569985 58.02202099 101.39282227 61.31054688 C100.88643441 63.48842379 100.90467454 65.51786891 100.9375 67.75 C100.94652344 68.54921875 100.95554687 69.3484375 100.96484375 70.171875 C100.97644531 70.77515625 100.98804688 71.3784375 101 72 C106.73314356 72.29654191 109.90329746 71.91240145 115 69 C115.66 69 116.32 69 117 69 C117.14695312 68.10474609 117.14695312 68.10474609 117.296875 67.19140625 C119.491425 54.45923255 122.56820784 41.97415116 126.3371582 29.62060547 C127.41610171 26.07519797 128.2706615 22.6466925 129 19 C136.26 19 143.52 19 151 19 C149.78236852 23.8705259 148.5546439 28.67113156 147.16015625 33.484375 C146.6487207 35.25941406 146.6487207 35.25941406 146.12695312 37.0703125 C145.42179027 39.50797639 144.71606829 41.94547862 144.00976562 44.3828125 C142.36362542 50.09935211 140.746933 55.82152961 139.24609375 61.578125 C139.00431396 62.5052832 138.76253418 63.43244141 138.51342773 64.38769531 C137.99754466 67.0124927 137.83161032 69.33270754 138 72 C139.57027317 73.57027317 141.14269947 73.16974386 143.3125 73.1875 C144.09238281 73.20167969 144.87226562 73.21585937 145.67578125 73.23046875 C148.31113757 72.9691477 149.81843638 72.50420446 152 71 C156.8414847 62.44671037 158.59143546 51.12607533 161.24316406 41.68457031 C162.41331002 37.53394937 163.60677629 33.39040972 164.8125 29.25 C165.01931396 28.52925293 165.22612793 27.80850586 165.43920898 27.06591797 C166.88442785 22.11557215 166.88442785 22.11557215 168 21 C169.56423432 20.98334926 171.12935006 21.03691108 172.69140625 21.12109375 C173.63564453 21.16943359 174.57988281 21.21777344 175.55273438 21.26757812 C176.54595703 21.32365234 177.53917969 21.37972656 178.5625 21.4375 C179.55958984 21.48970703 180.55667969 21.54191406 181.58398438 21.59570312 C184.05627522 21.7258237 186.5282063 21.86080181 189 22 C188.34 24.31 187.68 26.62 187 29 C187.54269531 28.72285156 188.08539062 28.44570312 188.64453125 28.16015625 C189.35996094 27.79792969 190.07539062 27.43570313 190.8125 27.0625 C191.87404297 26.52302734 191.87404297 26.52302734 192.95703125 25.97265625 C197.6232825 23.75105671 201.91074858 23.341085 207 24 C209.71225945 25.23539768 211.88121096 26.88121096 214 29 C214.5573482 34.68495163 213.58551703 37.57083191 210 42 C207.59454362 43.20272819 206.05003047 43.10071472 203.375 43.0625 C202.14910156 43.04896484 202.14910156 43.04896484 200.8984375 43.03515625 C200.27195312 43.02355469 199.64546875 43.01195312 199 43 C198.01 40.36 197.02 37.72 196 35 C190.58246969 34.33250333 190.58246969 34.33250333 186.00488281 36.64575195 C183.67013974 39.38734078 182.84279862 41.62537376 181.78125 45.05859375 C181.21857422 46.84620117 181.21857422 46.84620117 180.64453125 48.66992188 C180.07798828 50.53487305 180.07798828 50.53487305 179.5 52.4375 C178.93345703 54.25024414 178.93345703 54.25024414 178.35546875 56.09960938 C177.22400925 59.72922259 176.10923724 63.36353911 175 67 C174.27700393 69.37008542 173.55309247 71.73989185 172.828125 74.109375 C172.5177832 75.12870117 172.20744141 76.14802734 171.88769531 77.19824219 C170.72787424 80.85888757 169.40169715 84.42567225 168 88 C161.55929529 88.10655578 155.37358711 87.96205088 149 87 C149 84.69 149 82.38 149 80 C148.45730469 80.34933594 147.91460938 80.69867188 147.35546875 81.05859375 C146.64003906 81.51363281 145.92460938 81.96867187 145.1875 82.4375 C144.47980469 82.88996094 143.77210938 83.34242188 143.04296875 83.80859375 C137.98255757 86.75969396 132.34975322 86.78681595 126.73828125 85.46875 C122.7339762 84.10684218 120.06346867 82.88417632 118 79 C117.67 78.01 117.34 77.02 117 76 C112.94234648 77.94880343 109.17046284 80.3041815 105.33984375 82.66015625 C100.38090699 85.49974775 95.57852827 85.60856672 90 85 C87.06833671 84.0156459 85.52105005 82.94330941 83 81 C81.8125 78.35546875 81.8125 78.35546875 81 76 C79.75283203 76.84884766 79.75283203 76.84884766 78.48046875 77.71484375 C77.39378906 78.44832031 76.30710937 79.18179688 75.1875 79.9375 C74.10855469 80.66839844 73.02960938 81.39929688 71.91796875 82.15234375 C66.24400145 85.7450968 60.54692315 85.63217644 54 85 C49.9272038 82.99932818 47.44700178 80.80644722 45 77 C44.46375 77.7425 43.9275 78.485 43.375 79.25 C39.30476066 83.96290871 34.19962001 87.39428558 27.96875 88.29296875 C22.65968119 88.62933099 19.27280853 87.53349981 14.82421875 84.6796875 C12.37390693 82.42351173 10.76309697 79.81005742 9 77 C8.28714844 77.68707031 7.57429687 78.37414062 6.83984375 79.08203125 C-4.7128021 89.95053657 -4.7128021 89.95053657 -14.0625 90.4375 C-18.76444981 90.27339553 -21.44151491 89.21958175 -25 86 C-28.48521211 81.76122851 -29.56416015 78.44799814 -30 73 C-33.74283292 76.45160385 -37.03452415 79.7762424 -39.625 84.1875 C-44.20557237 91.8316063 -51.56409358 94.612109 -59.9375 96.75 C-68.2092792 97.42524728 -74.93507743 97.92051078 -82 93 C-84.5 90.75 -84.5 90.75 -86 89 C-86.2784375 90.051875 -86.2784375 90.051875 -86.5625 91.125 C-89.49498899 96.98997798 -95.06820234 100.49546321 -101 103 C-107.0670401 104.85861185 -114.61405316 105.48832828 -120.48828125 102.90625 C-127.4950146 97.94479663 -130.4870325 91.35072522 -132 83 C-133.28241854 69.176819 -133.13411812 53.92900576 -123.84765625 42.71875 C-117.5054071 36.81898335 -110.77679752 33.85976738 -102.1875 33.75 C-100.98480469 33.72421875 -99.78210938 33.6984375 -98.54296875 33.671875 C-94.59332602 34.0376633 -92.30938376 34.82836444 -89 37 C-84.8712996 42.19360833 -85.28846049 47.66233414 -86 54 C-88.12643181 62.13714571 -95.09788074 68.46284102 -101.92578125 72.90234375 C-109.20514706 77 -109.20514706 77 -113 77 C-111.11776203 85.76604437 -111.11776203 85.76604437 -105 92 C-99.99235914 92.46367045 -96.98462087 92.12308122 -93 89 C-89.15726174 84.62354809 -87.959902 81.95761207 -87.25 76.25 C-86.35869994 70.62535642 -85.16053703 67.84849676 -81 64 C-80.34 63.67 -79.68 63.34 -79 63 C-76.10568004 56.14460919 -75.20746999 48.70103849 -74.3125 41.375 C-74.18294922 40.37082031 -74.05339844 39.36664063 -73.91992188 38.33203125 C-73.60580088 35.88886794 -73.29929155 33.44501632 -73 31 C-67.6857039 28.80796799 -62.45458116 26.68066184 -56.875 25.25 C-55.94429688 25.00765625 -55.01359375 24.7653125 -54.0546875 24.515625 C-53.03761719 24.26039063 -53.03761719 24.26039063 -52 24 C-51.84144531 24.72703125 -51.68289063 25.4540625 -51.51953125 26.203125 C-49.46137379 35.07253283 -46.39791794 43.12904863 -42.37890625 51.29296875 C-39.11897529 57.96136469 -37.03374495 63.52549448 -37 71 C-31.35955284 65.51199736 -28.64575373 62.31402071 -27.83203125 54.390625 C-27.70522224 53.30041046 -27.70522224 53.30041046 -27.57585144 52.18817139 C-27.30968991 49.87660102 -27.06087756 47.56354196 -26.8125 45.25 C-26.63460638 43.67825565 -26.45558249 42.10663878 -26.27539062 40.53515625 C-25.8371527 36.69145792 -25.41445906 32.84633201 -25 29 C-26.32 29 -27.64 29 -29 29 C-29 27.35 -29 25.7 -29 24 C-27.35 23.67 -25.7 23.34 -24 23 C-23.34 17.06 -22.68 11.12 -22 5 C-17.84527866 3.33811146 -14.21919973 2.28811205 -9.875 1.375 C-8.65554688 1.11460937 -7.43609375 0.85421875 -6.1796875 0.5859375 C-3 0 -3 0 0 0 Z " fill="#404040" transform="translate(524,220)"/>
<path d="M0 0 C42.9 0 85.8 0 130 0 C126.96395535 3.03604465 124.60793981 5.08375549 121.109375 7.37890625 C119.60890625 8.37011475 119.60890625 8.37011475 118.078125 9.38134766 C116.97984375 10.10112793 115.8815625 10.8209082 114.75 11.5625 C112.32636744 13.16271233 109.90542455 14.76697694 107.484375 16.37109375 C106.8294104 16.80450073 106.1744458 17.23790771 105.49963379 17.68444824 C97.1892727 23.18887902 88.92258902 28.75821149 80.65881348 34.33224487 C78.04816655 36.09252279 75.4357278 37.85011859 72.82324219 39.60766602 C64.43658503 45.25946598 56.10657935 50.94966816 48 57 C54.74654852 62.68159863 61.54972303 68.25634186 68.50439453 73.6809082 C73.04828568 77.23271851 77.53234318 80.85290031 82 84.5 C88.70151478 89.96660179 95.47085411 95.33844294 102.28662109 100.66162109 C107.53482861 104.76117561 112.77132552 108.87556883 118 113 C118.68433105 113.53931152 119.36866211 114.07862305 120.07373047 114.63427734 C122.17697212 116.29432736 124.27647853 117.95898871 126.375 119.625 C127.0362085 120.14634521 127.69741699 120.66769043 128.37866211 121.20483398 C129.93791892 122.44662985 131.47184889 123.72011994 133 125 C133 125.33 133 125.66 133 126 C56.11 126 -20.78 126 -100 126 C-95 120 -95 120 -92.40492249 119.20927429 C-91.01931374 119.18048943 -91.01931374 119.18048943 -89.60571289 119.15112305 C-88.55013687 119.11476242 -87.49456085 119.07840179 -86.40699768 119.04093933 C-84.70699867 119.02647514 -84.70699867 119.02647514 -82.97265625 119.01171875 C-81.79215195 118.97818802 -80.61164764 118.94465729 -79.39537048 118.91011047 C-75.61783657 118.80851573 -71.84090961 118.74697786 -68.0625 118.6875 C-64.31684765 118.60119019 -60.57146503 118.50673448 -56.82603455 118.41133118 C-54.49869431 118.35506724 -52.17117578 118.30558264 -49.84352112 118.264328 C-43.02914127 118.13482424 -36.27023173 117.75964652 -29.47471619 117.24250793 C-23.8991758 116.85337895 -18.32004223 116.67658699 -12.734375 116.5 C-10.27343674 116.41668903 -7.81249927 116.33335502 -5.3515625 116.25 C-1.53811684 116.12403328 2.27536275 115.99917415 6.08886719 115.875 C9.81455072 115.7527525 13.54008466 115.62652565 17.265625 115.5 C18.39502502 115.46455078 19.52442505 115.42910156 20.68804932 115.39257812 C27.16151902 115.17139144 33.56500722 114.74407073 40 114 C39.17314697 113.98018066 38.34629395 113.96036133 37.49438477 113.93994141 C20.84824384 113.52587537 4.25657189 112.90076541 -12.36010742 111.8034668 C-28.04532775 110.79343234 -43.75210035 110.25822899 -59.45874023 109.69750977 C-60.51643112 109.658284 -61.57412201 109.61905823 -62.66386414 109.5786438 C-64.66008595 109.50465932 -66.656434 109.43398134 -68.65290833 109.36715698 C-69.54829819 109.33357086 -70.44368805 109.29998474 -71.36621094 109.26538086 C-72.14381775 109.2381041 -72.92142456 109.21082733 -73.72259521 109.182724 C-76.20598763 108.98347291 -78.56796808 108.53188736 -81 108 C-80.08552154 106.91481889 -79.16829593 105.83195262 -78.25 104.75 C-77.73953125 104.14671875 -77.2290625 103.5434375 -76.703125 102.921875 C-76.14109375 102.28765625 -75.5790625 101.6534375 -75 101 C-74.45623718 100.32108704 -73.91247437 99.64217407 -73.35223389 98.94268799 C-70.2620561 96.39053902 -67.51618976 96.2292708 -63.66113281 95.99511719 C-62.92903091 95.93601166 -62.19692902 95.87690613 -61.44264221 95.81600952 C-59.03044938 95.62559112 -56.61722852 95.46113075 -54.203125 95.296875 C-52.52720146 95.16966702 -50.85140007 95.04084018 -49.17572021 94.91046143 C-44.77096469 94.57211302 -40.36489503 94.25576342 -35.95819092 93.94396973 C-31.45940811 93.6217518 -26.96221555 93.27875294 -22.46484375 92.9375 C-13.64466136 92.27131981 -4.82295101 91.62836962 4 91 C2.79690186 90.91959473 1.59380371 90.83918945 0.35424805 90.75634766 C-4.20671046 90.45055844 -8.76733363 90.13998292 -13.32788086 89.828125 C-15.28352469 89.69502924 -17.23925169 89.56314853 -19.19506836 89.43261719 C-32.16645286 88.56585801 -45.08182068 87.46300235 -58 86 C-57.40149986 85.30851364 -57.40149986 85.30851364 -56.79090881 84.60305786 C-53.5030294 80.80495059 -53.5030294 80.80495059 -50.40795898 76.85107422 C-46.83392168 72.42410491 -43.63313183 71.43017055 -38.03515625 70.6953125 C-35.37441754 70.4728117 -32.72632928 70.28250559 -30.0625 70.125 C-28.71657053 70.02379986 -27.37085917 69.91965398 -26.02539062 69.8125 C-23.53505096 69.61931602 -21.04361181 69.43946323 -18.55102539 69.27783203 C-14.68899786 68.97566721 -10.84391598 68.4804895 -7 68 C-16.57 67.01 -26.14 66.02 -36 65 C-36 64.34 -36 63.68 -36 63 C-34.63671875 61.66015625 -34.63671875 61.66015625 -32.6875 60.0625 C-27.1405193 55.35597092 -22.10381167 50.17513823 -17 45 C-15.95199219 44.17435547 -15.95199219 44.17435547 -14.8828125 43.33203125 C-11.81437612 39.53149906 -10.9198082 35.02898043 -9.625 30.375 C-6.69520853 20.13495213 -3.37632008 10.12896024 0 0 Z " fill="#FDFDFD" transform="translate(1035,367)"/>
<path d="M0 0 C42.9 0 85.8 0 130 0 C137 22 137 22 139.875 32.8125 C142.31842478 41.02656629 145.06172545 45.75800989 152 51 C153.4037159 52.19916713 154.79990932 53.40721009 156.1875 54.625 C156.77917969 55.11226563 157.37085938 55.59953125 157.98046875 56.1015625 C160.88980898 58.83645486 163.40140245 61.96830285 166 65 C157.75 65.99 149.5 66.98 141 68 C143.24296875 68.16113281 145.4859375 68.32226562 147.796875 68.48828125 C150.01252855 68.68199 152.22598754 68.89257164 154.43994141 69.10473633 C155.95701376 69.24117985 157.47573743 69.36055111 158.99560547 69.46118164 C169.79928916 70.19212394 176.27068604 72.41054723 183.78613281 80.39526367 C186 83 186 83 188 86 C158.3 88.475 158.3 88.475 128 91 C131.99815501 91.799631 135.54871182 92.23222067 139.59106445 92.46142578 C141.56385124 92.57757736 141.56385124 92.57757736 143.57649231 92.69607544 C144.274694 92.73622898 144.9728957 92.77638252 145.69225502 92.81775284 C149.41762081 93.03663845 153.14129505 93.28167801 156.86523438 93.5234375 C161.59116663 93.83020108 166.31699532 94.12879057 171.0456543 94.390625 C174.87908443 94.60359118 178.70935363 94.84824775 182.53948021 95.11388779 C183.99189712 95.20895718 185.44510445 95.29270673 186.89885902 95.36447525 C194.7208446 95.75698342 200.79379567 96.26380884 206.49357605 102.13937378 C208.04695803 104.05799917 209.54156255 106.0083333 211 108 C197.62354317 109.37777505 184.31016138 110.20404584 170.86691284 110.55197144 C159.58579756 110.84716459 148.32928582 111.36153964 137.0625 112 C122.71203937 112.811277 108.36497043 113.49047588 94 114 C100.00851499 114.71873036 105.96217091 115.21577414 112.00683594 115.46484375 C112.85889618 115.50239777 113.71095642 115.53995178 114.58883667 115.5786438 C117.38723016 115.70121335 120.18578824 115.81943262 122.984375 115.9375 C124.96471126 116.02312694 126.94503742 116.10898756 128.925354 116.19506836 C133.08101752 116.37507821 137.23676045 116.55307769 141.39257812 116.72949219 C146.62900718 116.951819 151.86527077 117.17777044 157.10147858 117.40524292 C161.18288737 117.58222562 165.2643804 117.75722696 169.34587097 117.93231201 C172.34317797 118.06180026 175.34035065 118.19412825 178.33752441 118.32666016 C186.96138488 118.70244706 195.57759109 119.04203 204.20898438 119.171875 C205.57375593 119.19756475 206.93852263 119.2235142 208.30328369 119.24975586 C210.72437018 119.28999834 213.145904 119.3107816 215.56732178 119.30688477 C223.99526195 119.4571021 223.99526195 119.4571021 227.74511719 122.48046875 C230 125 230 125 230 126 C153.11 126 76.22 126 -3 126 C2.62811791 120.37188209 2.62811791 120.37188209 5.49609375 118.0546875 C6.12966797 117.54099609 6.76324219 117.02730469 7.41601562 116.49804688 C8.08310547 115.96244141 8.75019531 115.42683594 9.4375 114.875 C10.49420898 114.02131836 10.49420898 114.02131836 11.57226562 113.15039062 C16.58283698 109.11222126 21.63408747 105.12772313 26.70654297 101.16772461 C31.20545652 97.64758232 35.63917838 94.05198567 40.0625 90.4375 C45.83843676 85.71975013 51.69436432 81.1392972 57.625 76.6171875 C63.619611 72.00567048 69.44290296 67.17531882 75.296875 62.38769531 C77.5193529 60.57683459 79.75720546 58.7856095 82 57 C75.13871292 51.40242241 67.8812926 46.47761693 60.49801636 41.60922241 C56.88887543 39.2284477 53.28880461 36.83401092 49.6875 34.44140625 C48.92243637 33.93350052 48.15737274 33.42559479 47.36912537 32.90229797 C38.44274356 26.97286829 29.54377011 21.00281125 20.65530396 15.01672363 C18.8421481 13.79637529 17.02807923 12.5773824 15.21310425 11.35974121 C12.66979446 9.65326013 10.12944654 7.94246 7.58984375 6.23046875 C6.81958862 5.71483871 6.0493335 5.19920868 5.2557373 4.66795349 C3.48596183 3.47130491 1.7399472 2.23961961 0 1 C0 0.67 0 0.34 0 0 Z " fill="#FDFDFD" transform="translate(55,367)"/>
<path d="M0 0 C2.171875 1.10546875 2.171875 1.10546875 5.234375 3.10546875 C5.894375 2.44546875 6.554375 1.78546875 7.234375 1.10546875 C9.23046875 1.05859375 9.23046875 1.05859375 11.671875 1.35546875 C12.99638672 1.51595703 12.99638672 1.51595703 14.34765625 1.6796875 C19.00021244 2.3659238 23.61953452 3.20180227 28.234375 4.10546875 C25.93979331 11.45891007 23.01137531 18.39411941 19.859375 25.41796875 C17.97374205 29.64251179 16.09862373 33.87144547 14.234375 38.10546875 C13.7506543 39.19134277 13.26693359 40.2772168 12.76855469 41.39599609 C12.31125977 42.44867676 11.85396484 43.50135742 11.3828125 44.5859375 C10.96950684 45.52719482 10.55620117 46.46845215 10.13037109 47.43823242 C9.19093952 50.23476918 8.82197376 52.18330246 9.234375 55.10546875 C12.91553037 57.55957233 14.88731098 57.33834718 19.234375 57.10546875 C22.24748743 56.44976822 22.24748743 56.44976822 23.25157166 54.52049255 C23.55261307 53.8362471 23.85365448 53.15200165 24.16381836 52.44702148 C24.51105453 51.67208847 24.85829071 50.89715546 25.21604919 50.09873962 C25.58174515 49.25404617 25.9474411 48.40935272 26.32421875 47.5390625 C26.71001602 46.67160904 27.09581329 45.80415558 27.49330139 44.91041565 C28.72952544 42.12558123 29.95109122 39.33460164 31.171875 36.54296875 C32.39205483 33.77772627 33.61521269 31.01382469 34.83973694 28.25050354 C35.60093744 26.53002014 36.35911951 24.80819696 37.11375427 23.08482361 C39.3443208 18.01114625 41.7176217 13.04376981 44.234375 8.10546875 C51.54143403 8.6193797 58.22040511 9.98527633 65.234375 12.10546875 C64.574375 13.75546875 63.914375 15.40546875 63.234375 17.10546875 C63.9046875 16.945625 64.575 16.78578125 65.265625 16.62109375 C68.7885863 16.009211 72.15891999 15.89837421 75.734375 15.85546875 C77.66796875 15.81679688 77.66796875 15.81679688 79.640625 15.77734375 C84.13811356 16.18798401 86.60523928 17.48867497 89.78125 20.640625 C93.70229324 25.618313 94.8186652 28.40528385 94.77734375 34.7109375 C93.75491048 41.10298436 90.39959886 46.55148538 87.30371094 52.16601562 C85.73179482 55.01699773 84.22439849 57.89847335 82.734375 60.79296875 C82.2496875 61.70433594 81.765 62.61570312 81.265625 63.5546875 C80.16514416 66.27671018 80.02490077 68.19901382 80.234375 71.10546875 C83.49983261 72.9893866 86.51549261 73.59834842 90.234375 74.10546875 C90.58757812 72.89890625 90.94078125 71.69234375 91.3046875 70.44921875 C93.51688926 63.82039379 96.8496351 57.76500837 100.109375 51.60546875 C100.72845025 50.42218123 101.3469432 49.23858887 101.96484375 48.0546875 C105.30131595 41.68895574 108.70184201 35.36461811 112.234375 29.10546875 C110.914375 29.10546875 109.594375 29.10546875 108.234375 29.10546875 C109.224375 26.63046875 109.224375 26.63046875 110.234375 24.10546875 C112.214375 24.10546875 114.194375 24.10546875 116.234375 24.10546875 C116.440625 23.32171875 116.646875 22.53796875 116.859375 21.73046875 C118.73901119 16.77506424 121.43651715 12.60637051 124.234375 8.10546875 C131.494375 9.09546875 138.754375 10.08546875 146.234375 11.10546875 C144.60895326 15.16902309 142.90602282 18.50844378 140.671875 22.23046875 C138.88124439 25.21609401 137.33554528 27.80195792 136.234375 31.10546875 C138.544375 31.76546875 140.854375 32.42546875 143.234375 33.10546875 C142.904375 34.42546875 142.574375 35.74546875 142.234375 37.10546875 C138.934375 37.10546875 135.634375 37.10546875 132.234375 37.10546875 C131.88246094 37.75918457 131.53054688 38.41290039 131.16796875 39.08642578 C129.52525283 42.13542233 127.87995758 45.18301845 126.234375 48.23046875 C125.64438721 49.32528564 125.05439941 50.42010254 124.4465332 51.5480957 C121.88681143 56.2816744 119.3274227 61.00705497 116.58984375 65.640625 C116.21666016 66.27274902 115.84347656 66.90487305 115.45898438 67.55615234 C114.49161976 69.17616927 113.51001846 70.78766143 112.52734375 72.3984375 C111.16665516 75.24725077 110.94421352 76.99334462 111.234375 80.10546875 C114.204375 81.09546875 114.204375 81.09546875 117.234375 82.10546875 C115.78973547 85.47629433 113.98774375 87.68584167 111.234375 90.10546875 C106.32910024 91.74056034 102.45705673 91.49921371 97.546875 89.91796875 C94.04461774 88.0016393 92.30345998 86.49876812 90.234375 83.10546875 C90.234375 81.78546875 90.234375 80.46546875 90.234375 79.10546875 C89.70070313 79.39421875 89.16703125 79.68296875 88.6171875 79.98046875 C82.14812345 83.20380862 76.29661709 84.44831541 69.1875 82.5625 C64.75125632 80.84677328 61.3753881 78.38749495 59.234375 74.10546875 C57.83180377 64.04705936 61.02671784 57.12370896 65.734375 48.41796875 C71.68208261 37.85315784 71.68208261 37.85315784 72.234375 26.10546875 C68.55187147 23.6504664 66.51279702 23.9234855 62.23901367 24.04736328 C61.57748291 24.06653809 60.91595215 24.08571289 60.234375 24.10546875 C54.44241889 35.47890612 49.00396385 46.98180384 43.734375 58.60546875 C43.00027103 60.21887335 42.26589718 61.83215517 41.53125 63.4453125 C39.76252827 67.33063106 37.99740492 71.21756434 36.234375 75.10546875 C33.44201052 74.63010906 30.65052509 74.15036205 27.859375 73.66796875 C27.0653125 73.53326172 26.27125 73.39855469 25.453125 73.25976562 C19.4609375 72.21875 19.4609375 72.21875 17.234375 71.10546875 C17.564375 69.12546875 17.894375 67.14546875 18.234375 65.10546875 C17.161875 65.60046875 16.089375 66.09546875 14.984375 66.60546875 C8.83389991 68.87372907 1.94648303 69.58094387 -4.2421875 67.12109375 C-7.93421133 64.94615608 -10.1731207 63.17345002 -11.765625 59.10546875 C-11.765625 58.11546875 -11.765625 57.12546875 -11.765625 56.10546875 C-12.27351562 56.51539063 -12.78140625 56.9253125 -13.3046875 57.34765625 C-19.74016299 62.38516328 -24.96295702 64.66285917 -33.23046875 64.48828125 C-38.44592651 63.70073909 -42.26723563 61.03987904 -45.45703125 56.921875 C-47.12371328 53.33477726 -47.29998456 50.11442087 -47.265625 46.23046875 C-47.26062988 45.48595459 -47.25563477 44.74144043 -47.25048828 43.97436523 C-46.8276828 30.22443954 -40.79460918 17.37308614 -31.765625 7.10546875 C-29.07421875 5.12109375 -29.07421875 5.12109375 -26.203125 3.35546875 C-25.25308594 2.7625 -24.30304687 2.16953125 -23.32421875 1.55859375 C-16.77521499 -2.16084045 -7.14464562 -2.31090939 0 0 Z " fill="#3F3F3F" transform="translate(774.765625,250.89453125)"/>
<path d="M0 0 C1.13034716 3.39104148 0.93078268 3.85582807 -0.3449707 7.0168457 C-0.82950966 8.23780441 -0.82950966 8.23780441 -1.32383728 9.48342896 C-1.68747879 10.37190521 -2.0511203 11.26038147 -2.42578125 12.17578125 C-2.80033951 13.11275848 -3.17489777 14.04973572 -3.56080627 15.0151062 C-4.8029748 18.11767942 -6.05790673 21.21493269 -7.3125 24.3125 C-8.1764014 26.46545725 -9.03918108 28.61886492 -9.90087891 30.77270508 C-11.23917284 34.11774376 -12.57805084 37.46253189 -13.92022705 40.80601501 C-18.24616973 51.58589795 -22.49086517 62.3968431 -26.71517944 73.21688843 C-27.84969323 76.12268258 -28.98580608 79.0278468 -30.12231445 81.93286133 C-33.77657473 91.27778147 -37.41432767 100.62850413 -41 110 C-44.76086974 109.43345199 -46.43430723 107.90804041 -49.046875 105.2109375 C-49.81 104.43363281 -50.573125 103.65632813 -51.359375 102.85546875 C-52.54273438 101.62763672 -52.54273438 101.62763672 -53.75 100.375 C-58.69388256 95.29104077 -63.64536694 90.3578577 -69.03076172 85.7421875 C-72.58150085 82.60084428 -75.86852685 79.19499417 -79.1875 75.8125 C-84.37659103 70.4934603 -84.37659103 70.4934603 -89.98828125 65.63671875 C-90.65214844 65.09660156 -91.31601563 64.55648437 -92 64 C-92 63.34 -92 62.68 -92 62 C-92.59458008 61.7321167 -93.18916016 61.4642334 -93.80175781 61.18823242 C-96.02239757 59.98789327 -97.4243607 58.79297002 -99.171875 56.98828125 C-100.0390918 56.10366211 -100.0390918 56.10366211 -100.92382812 55.20117188 C-101.52646484 54.57791016 -102.12910156 53.95464844 -102.75 53.3125 C-107.13590443 48.84495516 -111.54231117 44.5178601 -116.3125 40.45703125 C-119.03911405 38.10280199 -121.54554833 35.63853554 -124 33 C-124 32.34 -124 31.68 -124 31 C-106.46935933 25.47227335 -88.7899438 20.6143813 -71 16 C-69.9785791 15.7333252 -68.9571582 15.46665039 -67.90478516 15.19189453 C-54.72852909 11.76459625 -41.4748916 8.71074642 -28.1875 5.75 C-27.41323669 5.57710449 -26.63897339 5.40420898 -25.84124756 5.22607422 C-17.25700285 3.31374587 -8.67326005 1.47119924 0 0 Z " fill="#FDFDFD" transform="translate(341,377)"/>
<path d="M0 0 C5.07999677 -0.16095848 9.48349182 0.37806073 14.42578125 1.5390625 C15.47012581 1.78087502 15.47012581 1.78087502 16.53556824 2.02757263 C18.79631149 2.55278822 21.0543567 3.0887267 23.3125 3.625 C24.89306543 3.99475986 26.47379661 4.36381186 28.0546875 4.73217773 C31.22558702 5.47183558 34.39556143 6.21528536 37.56494141 6.96142578 C41.41806705 7.86659304 45.27587278 8.74936151 49.13671875 9.62109375 C71.57027334 14.69071848 93.74916725 20.42172574 115.70117188 27.29150391 C118.78795671 28.24284732 121.88969033 29.12894333 125 30 C123.4411883 33.98981565 120.64583299 36.37166021 117.5 39.125 C112.67862265 43.43488704 108.05743574 47.87710509 103.546875 52.515625 C101.52109659 54.49169105 99.47336405 56.33217652 97.328125 58.171875 C92.3006621 62.53182997 87.66771901 67.26155798 83 72 C77.78971157 77.28923219 72.57194627 82.45172462 66.93408203 87.28417969 C62.70968639 91.03185105 58.84026679 95.16168229 54.91210938 99.21484375 C54.24888672 99.88902344 53.58566406 100.56320312 52.90234375 101.2578125 C52.31960693 101.8573877 51.73687012 102.45696289 51.13647461 103.07470703 C48.26479107 105.66253658 45.17287291 107.79181177 42 110 C41.29375488 108.17408325 41.29375488 108.17408325 40.57324219 106.3112793 C38.72337401 101.52971667 36.87221463 96.74865483 35.02050781 91.96780396 C34.17399865 89.78221538 33.3276443 87.59656684 32.48144531 85.41085815 C27.48488319 72.50793359 22.46482317 59.61479858 17.390625 46.7421875 C16.93677429 45.58977066 16.48292358 44.43735382 16.01531982 43.25001526 C13.81958299 37.67533934 11.61971843 32.1023544 9.41308594 26.53198242 C8.6085549 24.49144035 7.8041847 22.45083484 7 20.41015625 C6.45741547 19.04738052 6.45741547 19.04738052 5.90386963 17.65707397 C3.62165117 11.85039374 1.69930284 6.00302666 0 0 Z " fill="#FDFDFD" transform="translate(878,378)"/>
<path d="M0 0 C4.05282754 3.19712614 5.8023498 6.18242933 6.47265625 11.38671875 C6.93431083 20.63164755 4.10830793 27.22505487 -1.6875 34.3125 C-2.7703125 35.488125 -2.7703125 35.488125 -3.875 36.6875 C-2.8025 36.749375 -1.73 36.81125 -0.625 36.875 C3.125 37.6875 3.125 37.6875 5.4375 39.75 C10.52390866 48.60411877 9.49686022 59.18321092 9.58129883 69.07788086 C9.60299514 71.21246383 9.6423949 73.34618596 9.68359375 75.48046875 C9.70377563 77.37575317 9.70377563 77.37575317 9.72436523 79.30932617 C10.15138603 82.90998838 10.95328426 84.81610877 13.125 87.6875 C13.785 88.0175 14.445 88.3475 15.125 88.6875 C15.125 89.3475 15.125 90.0075 15.125 90.6875 C8.66938206 93.76422004 2.35717894 96.1604759 -4.875 94.6875 C-8.15321578 92.41203258 -8.83832899 89.42730691 -9.875 85.6875 C-10.06796667 83.03894124 -10.17546755 80.4867092 -10.18359375 77.83984375 C-10.20873884 76.33267818 -10.23413707 74.82551681 -10.25976562 73.31835938 C-10.288539 70.96607423 -10.31258859 68.61386161 -10.33129883 66.26147461 C-10.35299554 63.97473647 -10.39241455 61.68880204 -10.43359375 59.40234375 C-10.43370956 58.70326401 -10.43382538 58.00418427 -10.4339447 57.28392029 C-10.5211482 52.96282082 -10.68967291 49.75195448 -13.875 46.6875 C-17.175 46.6875 -20.475 46.6875 -23.875 46.6875 C-23.875 64.1775 -23.875 81.6675 -23.875 99.6875 C-40.875 104.6875 -40.875 104.6875 -42.875 104.6875 C-43.28679322 97.98804705 -43.695314 91.28839967 -44.10180664 84.58862305 C-44.23976663 82.32067598 -44.37841221 80.0527705 -44.51782227 77.78491211 C-45.24847546 65.8913553 -45.94266261 53.99833363 -46.46875 42.09375 C-46.5099144 41.17383774 -46.5510788 40.25392548 -46.5934906 39.30613708 C-46.91183458 31.76308691 -46.98233009 24.23638304 -46.875 16.6875 C-45.25418457 15.90790627 -43.62803217 15.13940846 -42 14.375 C-41.09507812 13.94574219 -40.19015625 13.51648438 -39.2578125 13.07421875 C-34.91413371 11.29361139 -30.37149282 10.03644785 -25.875 8.6875 C-25.875 19.2475 -25.875 29.8075 -25.875 40.6875 C-17.50664842 36.50332421 -14.36860622 33.90140392 -10.5 25.8125 C-9.34868258 20.05591292 -9.10324321 14.80983116 -11.125 9.25 C-13.61760061 5.60012053 -15.7047428 4.07758573 -19.875 2.6875 C-31.49254097 1.56322184 -41.51110017 6.58117786 -50.55859375 13.57421875 C-53.8546545 16.58124888 -56.00483295 19.65814009 -57.875 23.6875 C-58.308125 24.595 -58.74125 25.5025 -59.1875 26.4375 C-61.10052759 35.48090317 -60.15436747 42.59279286 -55.875 50.6875 C-55.545 51.6775 -55.215 52.6675 -54.875 53.6875 C-66.43318797 54.60132452 -66.43318797 54.60132452 -69.81640625 52.45703125 C-73.97813231 47.42569079 -74.35252126 42.26978625 -74.26953125 36.0078125 C-72.94624749 24.87126597 -64.80146804 15.20451233 -56.27929688 8.41650391 C-40.5203712 -3.2921014 -17.94250728 -11.61206108 0 0 Z " fill="#404040" transform="translate(374.875,240.3125)"/>
<path d="M0 0 C2.57161458 0.03255208 5.14322917 0.06510417 7.71484375 0.09765625 C7.08558246 9.65136396 4.91447702 18.79080403 2.79882812 28.10546875 C2.53263672 29.30429687 2.26644531 30.503125 1.9921875 31.73828125 C1.74718506 32.81625977 1.50218262 33.89423828 1.24975586 35.00488281 C0.71420685 38.10133868 0.61866112 40.96216121 0.71484375 44.09765625 C5.19368071 43.65061639 5.19368071 43.65061639 8.71484375 41.09765625 C9.44233708 38.52158091 9.44233708 38.52158091 9.96875 35.50390625 C10.18337891 34.39144531 10.39800781 33.27898437 10.61914062 32.1328125 C10.83634766 30.96621094 11.05355469 29.79960937 11.27734375 28.59765625 C11.71368358 26.29510495 12.15236745 23.99299622 12.59375 21.69140625 C12.78525635 20.66724609 12.9767627 19.64308594 13.17407227 18.58789062 C13.71484375 16.09765625 13.71484375 16.09765625 14.71484375 14.09765625 C18.34484375 14.09765625 21.97484375 14.09765625 25.71484375 14.09765625 C25.43769531 15.50917969 25.16054688 16.92070312 24.875 18.375 C24.50892729 20.26168242 24.14305242 22.14840323 23.77734375 24.03515625 C23.59494141 24.96134766 23.41253906 25.88753906 23.22460938 26.84179688 C22.11602833 32.5862623 21.28224442 38.27433363 20.71484375 44.09765625 C23.56518873 44.335185 25.26936186 44.34733745 27.79394531 42.93237305 C30.26947558 40.56790813 30.56259 38.89698844 31.19921875 35.5546875 C31.51826172 33.9449707 31.51826172 33.9449707 31.84375 32.30273438 C32.04871094 31.18318359 32.25367188 30.06363281 32.46484375 28.91015625 C32.79548828 27.21342773 32.79548828 27.21342773 33.1328125 25.48242188 C33.67480778 22.68996794 34.20147964 19.89549064 34.71484375 17.09765625 C34.05484375 17.09765625 33.39484375 17.09765625 32.71484375 17.09765625 C32.71484375 16.10765625 32.71484375 15.11765625 32.71484375 14.09765625 C33.70484375 13.76765625 34.69484375 13.43765625 35.71484375 13.09765625 C36.4840566 11.02379773 36.4840566 11.02379773 36.83984375 8.59765625 C37.63762367 4.17487633 37.63762367 4.17487633 38.71484375 3.09765625 C40.40093341 3.02560114 42.08985034 3.01379557 43.77734375 3.03515625 C44.69644531 3.04417969 45.61554688 3.05320312 46.5625 3.0625 C47.27277344 3.07410156 47.98304688 3.08570313 48.71484375 3.09765625 C48.57376628 4.55645734 48.4268196 6.01469176 48.27734375 7.47265625 C48.15552734 8.69082031 48.15552734 8.69082031 48.03125 9.93359375 C47.71484375 12.09765625 47.71484375 12.09765625 46.71484375 14.09765625 C48.03484375 14.09765625 49.35484375 14.09765625 50.71484375 14.09765625 C50.71484375 15.08765625 50.71484375 16.07765625 50.71484375 17.09765625 C49.06484375 17.09765625 47.41484375 17.09765625 45.71484375 17.09765625 C45.53308594 18.45697266 45.53308594 18.45697266 45.34765625 19.84375 C43.81058794 31.01705422 43.81058794 31.01705422 42.58984375 36.22265625 C41.56800317 40.08585656 41.56800317 40.08585656 41.71484375 44.09765625 C44.75871099 44.17992293 46.78659723 44.07373842 49.71484375 43.09765625 C49.65296875 41.81890625 49.59109375 40.54015625 49.52734375 39.22265625 C49.57007158 30.1501129 52.48527716 22.71657075 58.71484375 16.09765625 C62.03700613 13.88288133 63.26517698 13.80097918 67.15234375 13.78515625 C68.57353516 13.76001953 68.57353516 13.76001953 70.0234375 13.734375 C73.16857262 14.15889977 74.51369582 14.82533957 76.71484375 17.09765625 C77.63414443 20.17791048 77.39423411 22.9755723 76.71484375 26.09765625 C73.73687637 31.59058549 69.53106407 34.23207615 63.71484375 36.09765625 C62.72484375 36.09765625 61.73484375 36.09765625 60.71484375 36.09765625 C60.93140625 38.04671875 60.93140625 38.04671875 61.15234375 40.03515625 C61.27416016 41.13150391 61.27416016 41.13150391 61.3984375 42.25 C61.53370989 44.10905854 61.53370989 44.10905854 62.71484375 45.09765625 C67.57670449 45.54992237 70.50809413 44.50151318 74.71484375 42.09765625 C74.52734375 44.91015625 74.52734375 44.91015625 73.71484375 48.09765625 C69.92190997 51.06002059 66.90021914 51.52965466 62.15234375 51.53515625 C60.47978516 51.56416016 60.47978516 51.56416016 58.7734375 51.59375 C55.11862141 51.00095097 53.93139582 50.00789699 51.71484375 47.09765625 C51.71484375 46.43765625 51.71484375 45.77765625 51.71484375 45.09765625 C51.16957031 45.53078125 50.62429688 45.96390625 50.0625 46.41015625 C45.32704835 49.90710516 41.72221307 52.02862852 35.734375 51.640625 C32.4404455 50.75502306 30.74832941 48.72150871 28.71484375 46.09765625 C27.93109375 46.73703125 27.14734375 47.37640625 26.33984375 48.03515625 C23.03267211 50.63364825 21.40253487 51.2663717 17.27734375 51.34765625 C16.49488281 51.3734375 15.71242188 51.39921875 14.90625 51.42578125 C12.71484375 51.09765625 12.71484375 51.09765625 10.9296875 49.76953125 C9.71484375 48.09765625 9.71484375 48.09765625 9.71484375 45.09765625 C9.24175781 45.53078125 8.76867187 45.96390625 8.28125 46.41015625 C3.81515192 50.17108095 0.61673666 51.97451093 -5.30078125 51.56640625 C-8.23128666 50.87416088 -9.57575613 49.51930642 -11.28515625 47.09765625 C-11.61515625 46.43765625 -11.94515625 45.77765625 -12.28515625 45.09765625 C-12.75566406 45.44699219 -13.22617187 45.79632813 -13.7109375 46.15625 C-14.33355469 46.61128906 -14.95617187 47.06632812 -15.59765625 47.53515625 C-16.21253906 47.98761719 -16.82742188 48.44007813 -17.4609375 48.90625 C-22.20254606 52.0030179 -27.8460272 51.85992835 -33.28515625 51.09765625 C-37.16554445 48.58681682 -37.16554445 48.58681682 -38.28515625 45.09765625 C-39.39721621 35.3533685 -39.00947561 26.60177955 -32.78515625 18.72265625 C-30.08674812 15.88932771 -28.43512699 14.25130916 -24.5078125 13.7265625 C-16.03400921 13.54849741 -16.03400921 13.54849741 -12.47265625 16.16015625 C-10.85095063 20.17174384 -10.95111965 21.95512156 -12.28515625 26.09765625 C-15.35606133 30.61802853 -18.73240647 34.8970617 -24.28515625 36.09765625 C-25.60515625 36.09765625 -26.92515625 36.09765625 -28.28515625 36.09765625 C-28.14078125 37.39703125 -27.99640625 38.69640625 -27.84765625 40.03515625 C-27.76644531 40.76605469 -27.68523438 41.49695313 -27.6015625 42.25 C-27.46629011 44.10905854 -27.46629011 44.10905854 -26.28515625 45.09765625 C-22.45701151 45.35555232 -18.85604585 45.0031472 -15.49609375 43.06640625 C-9.50044261 37.28598362 -8.81881601 27.91387147 -7.28515625 20.09765625 C-6.74138111 17.45407251 -6.18990223 14.81222104 -5.63525391 12.17089844 C-5.28093778 10.47494384 -4.93280341 8.77768427 -4.59130859 7.07910156 C-3.17550902 0.13570551 -3.17550902 0.13570551 0 0 Z " fill="#434343" transform="translate(592.28515625,413.90234375)"/>
<path d="M0 0 C3.53065257 0.01089935 7.06126773 0.01041323 10.5919342 0.0100174 C39.86508609 0.01060844 68.92852059 0.81356454 98.11541748 3.24249268 C102.07134148 3.57097172 106.02807161 3.88788818 109.98504639 4.20343018 C122.54769663 5.21996067 135.09411038 6.34827127 147.62176514 7.73468018 C149.25312912 7.90886978 149.25312912 7.90886978 150.91744995 8.08657837 C151.91799408 8.20199982 152.91853821 8.31742126 153.94940186 8.43634033 C154.82120087 8.53484283 155.69299988 8.63334534 156.59121704 8.73483276 C159.01437021 9.20978752 160.76796757 10.05615917 162.94207764 11.19561768 C149.08784789 11.32171874 135.30530658 10.99832427 121.46633399 10.36428905 C95.49679273 9.19377447 69.56030632 8.85485614 43.56780648 8.79090071 C37.84652285 8.77481972 32.12528635 8.74818453 26.40403748 8.72286987 C15.66409142 8.67685048 4.92413567 8.63974582 -5.8158558 8.606197 C-18.08285673 8.56741761 -30.34980947 8.51816253 -42.61676919 8.46821284 C-67.76378414 8.3660421 -92.91083029 8.27642444 -118.05792236 8.19561768 C-115.32197095 5.45966627 -112.60636003 5.56964545 -108.92120361 5.19561768 C-107.7990168 5.07380127 -107.7990168 5.07380127 -106.65415955 4.94952393 C-105.04124852 4.77712977 -103.42784251 4.60931735 -101.81402588 4.44561768 C-99.50618495 4.20950726 -97.20123615 3.95410375 -94.89581299 3.69561768 C-63.37903046 0.31040004 -31.6647077 -0.12320324 0 0 Z " fill="#F9F9F9" transform="translate(786.0579223632813,557.8043823242188)"/>
<path d="M0 0 C19.46227205 0.98341074 38.91897081 2.02077434 58.3671875 3.25390625 C59.20883705 3.3072047 60.0504866 3.36050316 60.91764069 3.41541672 C67.77266813 3.85017696 74.62740598 4.28943044 81.48205566 4.73010254 C87.48524866 5.11596805 93.48859278 5.4993399 99.4921875 5.87890625 C100.31062889 5.93075703 101.12907028 5.9826078 101.97231293 6.03602982 C112.83720652 6.7209599 123.69920772 7.32225265 134.58078003 7.68080139 C140.41993665 7.88199011 146.19342236 8.35152635 152 9 C148.79541352 11.13639098 147.64667664 11.30980324 143.9211731 11.53749084 C142.34499207 11.64041695 142.34499207 11.64041695 140.73696899 11.74542236 C139.58385223 11.81146667 138.43073547 11.87751099 137.24267578 11.94555664 C136.02751282 12.02227097 134.81234985 12.09898529 133.56036377 12.17802429 C130.22072856 12.38702585 126.88079018 12.58795675 123.54045725 12.78528905 C120.02649037 12.99471573 116.51314995 13.21417748 112.99972534 13.43247986 C107.08008282 13.79888737 101.16007099 14.15871161 95.23974609 14.51391602 C86.96389197 15.01045704 78.68879138 15.51873873 70.41380334 16.02948201 C63.92445098 16.4295637 57.43489664 16.82635457 50.9453125 17.22265625 C49.92169672 17.28521445 49.92169672 17.28521445 48.87740183 17.34903646 C32.58891865 18.34368314 16.30244495 19.26518604 0 20 C0 13.4 0 6.8 0 0 Z " fill="#414141" transform="translate(697,435)"/>
<path d="M0 0 C0 6.6 0 13.2 0 20 C-22.72160772 18.68053574 -45.43674866 17.25271501 -68.15274334 15.84046936 C-76.45551195 15.32434525 -84.75840262 14.81027495 -93.06145734 14.29877377 C-98.93798906 13.93657721 -104.8143703 13.57200072 -110.69064647 13.2056818 C-114.18705304 12.98779008 -117.68351758 12.77095543 -121.18015099 12.55673218 C-125.06652378 12.31858203 -128.95258079 12.07551837 -132.83862305 11.83203125 C-133.98723816 11.76239166 -135.13585327 11.69275208 -136.3192749 11.6210022 C-137.37996689 11.55375946 -138.44065887 11.48651672 -139.53349304 11.41723633 C-140.44979838 11.36046219 -141.36610373 11.30368805 -142.3101759 11.24519348 C-145.24030969 10.97809434 -148.10426027 10.51624516 -151 10 C-151 9.67 -151 9.34 -151 9 C-132.19811271 7.82428475 -113.3960938 6.65069658 -94.59391594 5.47963715 C-85.86365407 4.93583894 -77.13343657 4.39134605 -68.40332031 3.84521484 C-60.79373647 3.36918273 -53.18407244 2.89445699 -45.57430947 2.4212966 C-41.54540888 2.17074162 -37.51655134 1.91953481 -33.48778915 1.66676331 C-29.6942435 1.42877042 -25.9005929 1.1925271 -22.10685539 0.95761299 C-20.71608544 0.87118705 -19.32535471 0.78412733 -17.93466759 0.69637871 C-16.03198221 0.57642068 -14.12913802 0.45898966 -12.22628784 0.3416748 C-11.16253874 0.27530571 -10.09878963 0.20893661 -9.00280571 0.14055634 C-6.00478732 0.00022409 -3.00130095 0 0 0 Z " fill="#3F3F3F" transform="translate(523,435)"/>
<path d="M0 0 C2.11914238 0.0052848 4.23826988 0.00716452 6.35741806 0.00866318 C31.01966871 0.03882729 55.54649247 1.06801773 80.15781784 2.6782341 C92.6634313 3.4855352 105.17969595 4.05157725 117.6974144 4.63399887 C143.30835489 5.83033705 168.87746504 7.36311002 194.44155502 9.31765366 C194.44155502 9.64765366 194.44155502 9.97765366 194.44155502 10.31765366 C183.52993638 10.3410777 172.61832396 10.35871894 161.70668507 10.36946583 C156.63709802 10.37463014 151.56752848 10.38160662 146.49795151 10.39309311 C107.10266487 10.47987604 107.10266487 10.47987604 88.89052963 9.60061264 C80.52095259 9.20644011 72.14564344 9.02054598 63.76968002 8.81765366 C62.93208208 8.79725903 62.09448414 8.7768644 61.23150444 8.75585175 C55.96301859 8.62818224 50.69445106 8.50421358 45.4258461 8.38156891 C42.66314034 8.31698945 39.90045932 8.25143215 37.13778305 8.1856041 C18.04993437 7.73150701 -1.03779339 7.3011931 -20.12875748 7.00124741 C-20.83904099 6.99003483 -21.54932449 6.97882225 -22.28113174 6.9672699 C-29.48770285 6.85427673 -36.69433758 6.75097104 -43.90121841 6.65945053 C-54.8200928 6.51252383 -65.67975305 6.3495314 -76.55844498 5.31765366 C-76.55844498 4.98765366 -76.55844498 4.65765366 -76.55844498 4.31765366 C-66.58011268 2.87398122 -56.66656614 1.82050685 -46.59750748 1.21218491 C-45.91685856 1.17043451 -45.23620964 1.12868412 -44.534935 1.08566856 C-29.69260301 0.18986686 -14.86979465 -0.03982374 0 0 Z " fill="#F2F2F2" transform="translate(323.55844497680664,558.6823463439941)"/>
<path d="M0 0 C5.50189095 0.34747943 11.00476867 0.67834437 16.50769043 1.0090332 C18.64823409 1.13769456 20.78877771 1.26635666 22.92932129 1.39501953 C23.97506317 1.45783112 25.02080505 1.5206427 26.09823608 1.58535767 C29.19651453 1.77238019 32.2946186 1.96209091 35.3927002 2.15234375 C50.9239934 3.10058583 66.45997708 3.88559688 82.00524902 4.56591797 C90.14631425 4.92684174 98.25241267 5.34312479 106.35925293 6.2121582 C106.35925293 6.5421582 106.35925293 6.8721582 106.35925293 7.2121582 C94.66362442 7.23573982 82.96800191 7.25329909 71.27235413 7.26397038 C65.83663063 7.26910218 60.40092384 7.27601343 54.96520996 7.28759766 C23.42302761 7.35299347 -8.12984127 7.29823464 -39.64074707 5.7121582 C-80.25455591 3.72053658 -120.98763444 3.73550874 -161.64074707 3.2121582 C-161.64074707 2.5521582 -161.64074707 1.8921582 -161.64074707 1.2121582 C-155.31630281 0.44605284 -148.98392675 -0.19722547 -142.64074707 -0.7878418 C-141.61578125 -0.88387695 -140.59081543 -0.97991211 -139.53479004 -1.07885742 C-93.1659519 -5.18563206 -46.36246587 -2.95187348 0 0 Z " fill="#F3F3F3" transform="translate(403.6407470703125,91.787841796875)"/>
<path d="M0 0 C2.01133698 0.00119777 4.02267452 0.00164371 6.03401184 0.00138855 C10.23193924 0.00294175 14.42977997 0.01113183 18.62768555 0.0246582 C23.91308877 0.04150515 29.198397 0.04538326 34.48382378 0.04484749 C91.10879845 0.04619429 91.10879845 0.04619429 117.83203125 2.23046875 C118.93417969 2.31296875 120.03632812 2.39546875 121.171875 2.48046875 C126.10539118 2.86319 130.96746938 3.28458172 135.83203125 4.23046875 C135.83203125 4.56046875 135.83203125 4.89046875 135.83203125 5.23046875 C135.15031357 5.23470069 134.46859589 5.23893263 133.76622009 5.24329281 C117.01448947 5.34756066 100.26279425 5.45632139 83.51112366 5.56980801 C75.40944616 5.62459069 67.30776439 5.6779686 59.20605469 5.7277832 C52.1271517 5.77131277 45.04827398 5.81773865 37.9694109 5.8673473 C34.23709312 5.89341002 30.50477855 5.91822428 26.77243042 5.93954277 C12.02122421 6.02486726 -2.72801971 6.17180582 -17.47455788 6.56993115 C-19.48931633 6.62330539 -21.50426505 6.66934219 -23.51921082 6.7151022 C-40.27878189 7.21814552 -55.16824297 11.133453 -69.875 19.19140625 C-70.63167969 19.53429687 -71.38835938 19.8771875 -72.16796875 20.23046875 C-72.82796875 19.90046875 -73.48796875 19.57046875 -74.16796875 19.23046875 C-49.75198497 3.71450486 -28.5546428 -0.11461757 0 0 Z " fill="#ECECEC" transform="translate(810.16796875,55.76953125)"/>
<path d="M0 0 C2.2265625 1.515625 2.2265625 1.515625 4 3 C1.87478573 10.83837808 -0.95423313 18.35947981 -4.02368164 25.86987305 C-4.55193007 27.17079313 -5.07238662 28.47490297 -5.58520508 29.78198242 C-10.94666117 43.44713632 -10.94666117 43.44713632 -17 47 C-20.125 47.5625 -20.125 47.5625 -23 47 C-25.63290241 44.92718774 -26.85140457 43.72549534 -27.53125 40.40625 C-27.39957409 28.1603902 -23.52377745 14.87674302 -14.90625 5.79296875 C-9.81771148 1.26675061 -7.02548202 -0.484516 0 0 Z " fill="#FBFBFB" transform="translate(774,258)"/>
<path d="M0 0 C0.99 0.66 1.98 1.32 3 2 C2.05354247 8.67539367 1.04952964 15.34003549 0 22 C-0.22478027 23.44125244 -0.22478027 23.44125244 -0.45410156 24.91162109 C-0.90513908 27.7370695 -1.38560393 30.55596857 -1.875 33.375 C-2.01196289 34.24729248 -2.14892578 35.11958496 -2.29003906 36.01831055 C-3.32120506 41.73148242 -4.84869152 44.90074555 -9 49 C-11.87470493 50.43735246 -13.81894588 50.38172649 -17 50 C-19.46109495 47.84543132 -20.81147729 46.07816691 -21.38232422 42.81347656 C-21.54115195 40.17537401 -21.55343982 37.57985392 -21.5 34.9375 C-21.48864014 33.9988208 -21.47728027 33.0601416 -21.46557617 32.09301758 C-21.13903634 20.38509879 -17.78185754 10.08616583 -9.625 1.5 C-6.19407674 -0.46052758 -3.8919977 -0.43244419 0 0 Z " fill="#FBFBFB" transform="translate(573,246)"/>
<path d="M0 0 C2.51551923 2.51551923 2.81410911 4.45160965 3.75 7.875 C5.14147474 12.6608298 6.83355913 16.77084711 9.25 21.125 C12.25268448 26.87191004 13.03835452 31.59335259 12 38 C10.38264306 42.68182273 8.31281739 45.50814996 4 48 C-0.28257321 48.85130259 -3.14083121 48.49356505 -6.9375 46.3125 C-9 44 -9 44 -10 39 C-6.7 38.34 -3.4 37.68 0 37 C0.9119209 34.2642373 1.22244822 32.34374032 1.3125 29.5 C1.34988281 28.7265625 1.38726562 27.953125 1.42578125 27.15625 C1.13161561 24.40224174 1.13161561 24.40224174 -3 22 C-2.01 14.74 -1.02 7.48 0 0 Z " fill="#F8F8F8" transform="translate(455,261)"/>
<path d="M0 0 C2.5 0.9375 2.5 0.9375 4.375 2.9375 C6.46026448 8.49820529 5.23531608 13.79129874 2.875 19.125 C-0.14285654 24.58328927 -4.39774567 28.55192384 -10.4375 30.3125 C-11.448125 30.51875 -12.45875 30.725 -13.5 30.9375 C-14.09357697 20.84669145 -12.27072681 9.80227717 -5.5 1.9375 C-2.5 -0.0625 -2.5 -0.0625 0 0 Z " fill="#F7F7F7" transform="translate(424.5,260.0625)"/>
<path d="M0 0 C2 2 2 2 2.3125 4.9375 C2 8 2 8 0.9375 9.9375 C-2.15212727 11.63181173 -4.67217418 10.73951685 -8 10 C-9 9 -9 9 -9.25 5.625 C-9 2 -9 2 -7.875 0 C-5.01126853 -1.52732345 -3.04699809 -0.84278671 0 0 Z " fill="#444444" transform="translate(618,413)"/>
<path d="M0 0 C1.65 0.33 3.3 0.66 5 1 C4.63669439 8.1450104 4.63669439 8.1450104 1.8125 11.9375 C-1.2546898 14.18677252 -3.24342777 14.73791357 -7 15 C-5.51298598 9.19839226 -4.27495594 4.42236821 0 0 Z " fill="#F4F4F4" transform="translate(660,432)"/>
<path d="M0 0 C1.65 0.33 3.3 0.66 5 1 C4.63669439 8.1450104 4.63669439 8.1450104 1.8125 11.9375 C-1.2546898 14.18677252 -3.24342777 14.73791357 -7 15 C-5.51298598 9.19839226 -4.27495594 4.42236821 0 0 Z " fill="#F4F4F4" transform="translate(571,432)"/>
<path d="M0 0 C0 0.33 0 0.66 0 1 C1.65 1.33 3.3 1.66 5 2 C5 2.33 5 2.66 5 3 C-1.27 3 -7.54 3 -14 3 C-14 2.34 -14 1.68 -14 1 C-9.23692563 0.04738513 -4.8333472 -0.08333357 0 0 Z " fill="#CDCDCD" transform="translate(256,92)"/>
<path d="M0 0 C7.4596963 0.74596963 14.68951218 2.36746129 22 4 C21.67 4.99 21.34 5.98 21 7 C13.96354423 5.11380178 6.96640656 3.13072305 0 1 C0 0.67 0 0.34 0 0 Z " fill="#7D7D7D" transform="translate(893,354)"/>
<path d="M0 0 C-3.37212381 2.24808254 -6.2874961 3.05160443 -10.1875 4.125 C-11.16879883 4.39763672 -11.16879883 4.39763672 -12.16992188 4.67578125 C-13.77862343 5.12199044 -15.38914131 5.56164215 -17 6 C-16.67 5.01 -16.34 4.02 -16 3 C-10.95526836 0.691394 -5.53728165 -0.43715381 0 0 Z " fill="#555555" transform="translate(287,248)"/>
<path d="M0 0 C10.55808656 0.96355353 10.55808656 0.96355353 15 2 C14.67 2.99 14.34 3.98 14 5 C12.22739369 4.54857225 10.4569632 4.08859477 8.6875 3.625 C7.20830078 3.24214844 7.20830078 3.24214844 5.69921875 2.8515625 C3 2 3 2 0 0 Z " fill="#696969" transform="translate(949,341)"/>
<path d="M0 0 C0.99 0.33 1.98 0.66 3 1 C-0.12488567 3.52394612 -3.31314387 5.39701907 -7 7 C-7.66 6.67 -8.32 6.34 -9 6 C-7.57140593 4.96674014 -6.13177617 3.94872366 -4.6875 2.9375 C-3.88699219 2.36902344 -3.08648438 1.80054687 -2.26171875 1.21484375 C-1.51535156 0.81394531 -0.76898437 0.41304688 0 0 Z " fill="#D2D2D2" transform="translate(745,69)"/>
</svg>
